<svg width="749" height="114" viewBox="0 0 749 114" fill="none" xmlns="http://www.w3.org/2000/svg">
<g clip-path="url(#clip0_7043_3793)">
<path d="M47.07 0.639984C47.531 0.236989 48.1226 0.0148926 48.735 0.0148926C49.3473 0.0148926 49.9389 0.236989 50.4 0.639984C56.72 4.95998 63.08 9.22 69.4 13.56C70.4 14.14 70.09 15.49 69.4 16.2C64.91 22.39 60.51 28.65 55.97 34.81C55.26 35.96 53.78 35.63 52.7 35.32L21.11 26.48C19.0295 26.0009 16.9898 25.3589 15.01 24.56C16.7746 22.883 18.6855 21.3669 20.72 20.03C29.53 13.58 38.29 7.02999 47.09 0.619995M77.63 6.45999C79.5321 7.42473 81.3143 8.60951 82.94 9.98999C91.98 16.6567 101.013 23.3033 110.04 29.93C110.54 30.2059 110.924 30.6534 111.121 31.1899C111.318 31.7265 111.314 32.316 111.11 32.85C109.11 40.0633 107.11 47.2733 105.11 54.48C104.92 55.48 104.17 57.02 102.87 56.41C95.55 53.93 88.17 51.61 80.87 49.07C80.3953 48.982 79.9716 48.7175 79.684 48.3297C79.3965 47.942 79.2664 47.4597 79.32 46.98C78.7 34.18 78.21 21.37 77.56 8.57999C77.56 8.04999 77.64 6.98999 77.67 6.45999M18.55 35.17C18.7359 34.9387 18.9756 34.7565 19.2481 34.639C19.5206 34.5216 19.8177 34.4726 20.1135 34.4962C20.4093 34.5199 20.6948 34.6155 20.9452 34.7748C21.1955 34.934 21.4032 35.1521 21.55 35.41C25.91 41.41 30.2 47.54 34.55 53.57C34.9738 53.9765 35.2396 54.5203 35.3 55.1045C35.3604 55.6886 35.2116 56.2753 34.88 56.76C27.94 67.51 20.88 78.2 13.94 88.94C13.5973 89.5492 13.0526 90.0196 12.4 90.27C8.31999 77.9 4.39998 65.48 0.399985 53.12C0.0499851 51.91 -0.450015 50.21 0.779985 49.33C6.69999 44.62 12.62 39.88 18.55 35.17ZM106.27 63.88C108.801 62.8097 111.396 61.8979 114.04 61.15C113.844 62.3684 113.549 63.5689 113.16 64.74C109.35 76.44 105.65 88.17 101.84 99.87C101.62 101.31 100.07 101.68 98.84 101.61C90.99 101.74 83.17 102.36 75.33 102.4C74.9899 101.241 74.8214 100.038 74.83 98.83C74.83 92.2 74.83 85.57 74.83 78.93C74.8035 77.7634 75.025 76.6045 75.48 75.53C85.77 71.74 95.99 67.73 106.26 63.88M45.52 80.78C46.74 80.31 48.43 80.09 49.18 81.45C56.8 91.09 64.35 100.78 72.01 110.4C72.7018 111.275 73.3048 112.216 73.81 113.21C69.35 113.7 64.81 113.21 60.38 113.46C51.5 113.34 42.61 113.41 33.73 113.31C33.2442 113.377 32.7508 113.263 32.3433 112.991C31.9359 112.718 31.6429 112.305 31.52 111.83C28.92 104.89 26.52 97.83 23.89 90.93C23.5283 90.0123 23.3911 89.0214 23.49 88.04C30.82 85.57 38.19 83.24 45.49 80.78H45.52Z" fill="#74B71A"/>
<path d="M154.95 31.3101C158.21 31.3101 161.47 31.3101 164.74 31.3101C172.2 49.1701 179.6 67.04 187.08 84.89C187.79 87.07 190.21 87.64 192.19 88.05C192.19 89.1301 192.19 90.2201 192.19 91.3101C184.46 91.3101 176.72 91.3101 168.99 91.3101C168.99 90.2001 168.99 89.1 168.99 88C171.24 87.78 173.65 87.8501 175.71 86.7701C177.41 85.7701 177.14 83.5401 176.54 81.9901C175.27 78.6901 173.85 75.45 172.54 72.16C164.45 72.16 156.37 72.16 148.28 72.16C146.96 75.45 145.66 78.7601 144.45 82.0901C144.04 83.4801 143.63 85.4301 144.95 86.4601C147.01 87.9001 149.67 87.81 152.07 88C152.07 89.11 152.07 90.2301 152.07 91.3401C145.68 91.3401 139.3 91.3401 132.91 91.3401C132.91 90.2401 132.91 89.13 132.91 88.04C134.91 87.65 137.26 87.11 137.97 84.95C144.51 68.95 150.85 52.95 157.45 37.01C156.64 35.1 155.78 33.21 154.92 31.32M149.92 67.91C156.92 67.91 163.83 67.91 170.78 67.91C167.1 59.2 163.78 50.34 159.96 41.69C156.9 50.52 153.19 59.13 149.96 67.89M509.51 42.72H511.91V51.35C515.76 51.35 519.6 51.35 523.44 51.35C523.44 52.76 523.44 54.1701 523.44 55.5901C519.6 55.5901 515.76 55.5901 511.91 55.5901C511.91 63.5901 511.91 71.6234 511.91 79.69C511.91 82.1 512.84 84.88 515.23 85.91C517.85 87.1 520.86 86.51 523.53 85.79C523.76 86.58 524 87.37 524.26 88.17C522.524 89.8416 520.393 91.0472 518.066 91.6748C515.739 92.3024 513.291 92.3318 510.95 91.76C507.04 90.76 504.46 86.8601 504.43 82.9301C504.36 73.8201 504.43 64.7001 504.43 55.5901H500.43C500.43 54.6601 500.48 53.74 500.52 52.82C504.52 50.47 506.76 46.3 509.52 42.7701M316.52 52.4901C320.17 50.0101 322.37 46.12 325.07 42.75H327.34C327.34 45.62 327.34 48.4901 327.34 51.3701C331.2 51.3701 335.07 51.3701 338.94 51.3701C338.94 52.7801 338.94 54.19 338.94 55.6C335.06 55.6 331.19 55.6 327.32 55.6C327.32 63.38 327.32 71.16 327.32 78.95C327.32 81.45 327.91 84.43 330.32 85.7401C333.01 87.1201 336.19 86.61 338.97 85.79C339.24 86.59 339.5 87.39 339.77 88.19C335.51 92.24 328.23 93.81 323.27 90.19C320.52 88.03 319.77 84.34 319.72 81.0201C319.72 72.5601 319.72 64.1 319.72 55.64C318.38 55.64 317.04 55.64 315.72 55.64C315.88 54.64 315.41 53.2 316.5 52.57M205.31 57.5201C207.1 55.2884 209.391 53.5111 211.998 52.3329C214.604 51.1546 217.452 50.6089 220.31 50.7401C223.352 50.7268 226.337 51.5754 228.917 53.1876C231.497 54.7998 233.568 57.1097 234.89 59.85C239.22 69.32 236.89 82.0201 228.21 88.2801C221.68 92.9701 212.14 93.82 205.26 89.38C205.35 94.03 205.11 98.69 205.37 103.33C205.84 106.04 209.06 106.21 211.23 106.61C211.23 107.61 211.23 108.61 211.23 109.61C204.78 109.61 198.34 109.61 191.89 109.61C191.84 108.61 191.8 107.61 191.76 106.61C193.97 106.21 197.67 105.96 197.65 102.93C197.76 88.3001 197.65 73.6501 197.71 59.0201C195.88 58.1201 194.06 57.24 192.2 56.41C192.2 55.91 192.2 54.93 192.2 54.41C196.72 53.26 200.9 50.5401 205.67 50.6801C205.56 52.9401 205.45 55.21 205.36 57.48M205.36 61.42C205.36 67.25 205.36 73.08 205.36 78.91C205.337 80.329 205.678 81.7302 206.35 82.9801C207.022 84.23 208.004 85.2869 209.2 86.05C212.603 87.8995 216.594 88.3445 220.32 87.29C222.187 86.7501 223.89 85.7518 225.273 84.386C226.656 83.0203 227.676 81.3304 228.24 79.47C229.855 74.2694 229.625 68.671 227.59 63.6201C226.861 61.7215 225.62 60.0621 224.005 58.8264C222.389 57.5907 220.463 56.827 218.44 56.6201C216.036 56.379 213.608 56.6857 211.339 57.517C209.07 58.3483 207.019 59.6827 205.34 61.42M578.76 60.95C582.18 54.51 589.42 50.67 596.61 50.64C601.31 50.46 606.61 51.52 609.73 55.38C612.14 58.25 612.29 63.38 608.73 65.38C606.96 65.38 605.2 65.38 603.45 65.38C603.45 62.38 603.81 58.5501 601.11 56.4601C598.11 54.5201 594.18 54.81 590.98 56.01C586.65 57.65 583.98 62.01 583.39 66.48C582.69 71.31 583.27 76.66 586.23 80.69C588.74 84.11 593.13 85.6901 597.23 85.5301C599.663 85.5879 602.076 85.087 604.285 84.0659C606.493 83.0448 608.438 81.5307 609.97 79.64C610.76 79.97 611.55 80.31 612.35 80.64C611.542 83.1113 610.161 85.3568 608.321 87.1936C606.481 89.0304 604.233 90.4065 601.76 91.2101C594.76 93.3201 586.16 92.28 581.01 86.66C574.7 79.82 574.37 68.8901 578.69 60.9301M633.38 50.9301C639.73 49.8301 646.76 51.27 651.47 55.85C659.47 63.68 659.22 78.07 651.47 85.97C643.9 93.8 629.89 94.49 621.94 86.86C615.51 80.58 614.61 70.1101 618.31 62.1801C619.744 59.2301 621.861 56.6651 624.486 54.6979C627.11 52.7308 630.166 51.4185 633.4 50.8701M631.94 55.79C627.62 56.97 625.14 61.2901 624.47 65.4601C623.47 71.4601 624.55 78.13 628.47 82.91C632.08 87.29 639 88.8401 643.92 85.8101C647.53 83.4401 649.05 78.9801 649.26 74.8101C649.6 69.3601 648.36 63.5 644.61 59.35C643.029 57.637 641.005 56.3949 638.762 55.7613C636.518 55.1277 634.143 55.1273 631.9 55.76M673.04 57.4901C676.72 53.1301 682.3 49.96 688.16 50.57C690.352 50.6206 692.476 51.3417 694.246 52.6361C696.016 53.9306 697.347 55.7363 698.06 57.8101C701.016 54.0702 705.231 51.5326 709.92 50.67C713.68 50.17 717.92 50.7801 720.74 53.5201C722.862 55.6778 724.051 58.5835 724.05 61.61C724.13 69.36 723.97 77.11 724.13 84.85C724.31 87.78 727.84 87.9501 730.02 88.4601C730.02 89.4601 730.02 90.3801 730.02 91.3401C723.52 91.4301 717.02 91.3401 710.54 91.3401C710.54 90.3401 710.54 89.3401 710.48 88.3401C712.69 87.8501 716.21 87.6701 716.39 84.7101C716.53 77.7101 716.39 70.63 716.45 63.58C716.52 60.96 715.23 58.08 712.6 57.19C707.67 55.5 702.44 57.8601 698.6 60.9001C698.54 68.4301 698.6 75.95 698.6 83.48C698.507 84.1166 698.572 84.7664 698.79 85.3717C699.008 85.977 699.372 86.5191 699.85 86.95C701.27 87.83 703 87.9501 704.6 88.3401C704.6 89.3401 704.6 90.3401 704.6 91.3401H685.03C685.03 90.3401 685.03 89.34 685.03 88.39C687.19 87.88 690.5 87.7901 690.94 84.9901C691.08 77.8501 690.94 70.71 691 63.57C691.1 60.8 689.53 57.8 686.7 57.08C681.87 55.73 676.78 57.9401 673.1 61.0301C673.1 68.9301 673.03 76.8201 673.1 84.7101C673.23 87.7101 676.78 87.9201 679.03 88.3701C679.03 89.3701 679.03 90.3701 678.97 91.3701H659.62C659.62 90.3701 659.62 89.3 659.69 88.2701C661.86 88 665.25 87.63 665.37 84.79C665.49 76.15 665.45 67.5 665.37 58.86C663.62 57.86 661.76 57.0901 659.95 56.2401C659.95 55.7401 659.95 54.7301 659.95 54.2401C664.43 53.0301 668.62 50.41 673.36 50.48C673.28 52.81 673.2 55.16 673.03 57.48M245.21 55.35C247.91 52.21 252.21 51.0001 256.15 50.6501C260.67 50.3801 265.68 50.65 269.35 53.6C272.44 56.02 273.67 60.06 273.77 63.85C273.85 69.74 273.77 75.6301 273.77 81.5201C273.77 83.46 274.51 85.76 276.53 86.41C277.712 86.5073 278.903 86.4024 280.05 86.1C280.278 86.9286 280.435 87.775 280.52 88.63C278.15 91.2 274.4 92.9401 270.94 91.6801C268.37 90.6801 267.24 87.9201 266.56 85.4601C263.73 88.1901 260.56 90.8301 256.56 91.6801C252.56 92.5301 247.92 92.34 244.63 89.61C239.53 85.49 239.95 75.79 246.45 73.26C252.95 70.73 259.66 69.18 266.24 67.05C266.24 64.12 266.05 61.05 264.49 58.47C262.28 54.66 256.86 53.47 253.07 55.47C250.19 57.2 250.88 60.9901 251.25 63.7801C249.07 64.0301 246.89 64.34 244.71 64.54C243.767 63.1755 243.299 61.5391 243.376 59.8824C243.454 58.2257 244.074 56.6404 245.14 55.3701M252.28 75.3701C249.28 76.3701 248.53 80.1201 249.63 82.7801C250.45 85.4401 253.42 86.7201 256.03 86.5601C259.9 86.6701 263.26 84.3501 266.03 81.9301C266.37 78.2901 266.03 74.5701 266.17 70.9301C261.52 72.4101 256.84 73.7701 252.25 75.4001M285.25 53.8701C289.25 52.7701 293.1 50.36 297.4 50.58C297.32 53.77 297.27 56.97 297 60.16C298.87 57.24 300.61 54.06 303.5 52.01C304.717 51.1559 306.15 50.6608 307.635 50.5812C309.121 50.5017 310.598 50.8408 311.9 51.5601C311.9 53.5601 311.9 55.4701 311.9 57.4301C309.55 57.5101 307.13 57.2801 304.9 58.0901C301.66 59.0901 299.18 61.6201 296.99 64.0901C297.14 70.9801 296.83 77.89 297.15 84.7701C297.62 88.18 301.72 87.71 304.25 88.26C304.77 89.17 304.44 90.32 304.56 91.33C297.56 91.33 290.64 91.33 283.67 91.33C283.67 90.33 283.67 89.33 283.67 88.33C285.35 87.93 287.21 87.83 288.62 86.73C289.67 85.73 289.62 84.16 289.62 82.82C289.62 74.82 289.62 66.82 289.62 58.82C287.88 57.99 286.1 57.29 284.43 56.35C283.13 55.64 284.07 53.87 285.32 53.82M342.84 54.2701C347.4 53.1401 351.65 50.33 356.47 50.55C356.31 52.93 356.16 55.3 356.01 57.69C359.84 52.61 366.55 49.47 372.9 50.83C374.731 51.1575 376.443 51.9623 377.864 53.1633C379.284 54.3643 380.363 55.9189 380.99 57.67C384.54 53.78 389.35 50.6 394.78 50.54C398.37 50.4 402.24 51.54 404.54 54.47C406.216 56.7138 407.054 59.4731 406.91 62.2701C406.91 69.7201 406.8 77.1601 406.91 84.5901C407 87.5901 410.54 87.93 412.82 88.36C412.82 89.36 412.82 90.36 412.82 91.36C406.31 91.36 399.82 91.41 393.31 91.36V88.47C395.39 87.95 398.55 87.95 399.19 85.38C399.4 78.13 399.19 70.86 399.29 63.61C399.46 60.97 398.04 58.07 395.37 57.29C390.51 55.66 385.37 58.0501 381.58 60.9901C381.5 68.9901 381.5 76.9667 381.58 84.92C381.81 87.74 385.17 88.03 387.35 88.33L387.41 91.4001C380.94 91.4001 374.41 91.4001 367.99 91.4001C367.99 90.4001 367.99 89.4 367.99 88.47C370.26 88 373.81 87.7201 373.92 84.6801C374.08 77.9001 373.92 71.1001 373.99 64.3101C374.08 61.6201 373.06 58.5401 370.37 57.4601C365.37 55.5301 360 57.97 356.08 61.07C356.02 68.55 356.08 76.07 356.08 83.5201C356.08 84.8 356.27 86.32 357.4 87.1C358.81 87.96 360.5 88.1 362.08 88.45C362.08 89.45 362.08 90.45 362.01 91.45H342.59V88.5C344.79 88 348.18 87.8401 348.5 84.9601C348.66 76.2901 348.5 67.6001 348.56 58.9601C346.681 58.1604 344.845 57.2625 343.06 56.2701L342.9 54.42M420.27 56.6501C426.27 49.9601 437.35 48.6501 444.82 53.6501C449.72 56.9601 451.33 63.2501 450.94 68.8701C441.19 68.8701 431.45 68.8701 421.71 68.8701C421.82 74.3301 423.12 80.64 428.18 83.66C434.81 87.32 444.01 85.66 448.75 79.66C449.54 79.98 450.33 80.3 451.12 80.66C450.3 83.2311 448.856 85.5593 446.918 87.4368C444.979 89.3143 442.606 90.6827 440.01 91.42C433.78 93.07 426.57 92.42 421.42 88.25C416.87 84.63 414.64 78.74 414.56 73.04C414.56 67.18 416.19 61.0401 420.27 56.6801M424.88 58.6801C423.347 60.4405 422.348 62.6017 422 64.91C428.89 64.97 435.77 64.96 442.66 64.91C442.45 63.14 442.31 61.28 441.24 59.79C437.84 54.35 429.06 53.96 424.88 58.67M454.05 54.39C458.58 53.26 462.77 50.49 467.56 50.67C467.43 53.03 467.31 55.38 467.19 57.75C471.32 53.87 476.58 50.59 482.43 50.69C485.86 50.61 489.53 51.6 491.91 54.22C494.02 56.61 494.69 59.9001 494.7 63.0201C494.7 70.12 494.7 77.22 494.7 84.32C494.784 85.2895 495.081 86.2285 495.57 87.07C497.207 87.7362 498.909 88.2257 500.65 88.5301C500.65 89.5301 500.65 90.53 500.65 91.48H481.18C481.18 90.48 481.18 89.48 481.18 88.48C482.76 88.1 484.49 88.04 485.89 87.11C487.29 86.18 487.19 84.3601 487.2 82.9001C487.2 76.4901 487.2 70.09 487.2 63.67C487.2 61.13 486.04 58.23 483.4 57.42C478.2 55.71 472.61 57.88 468.22 60.7C467.815 60.9079 467.488 61.2414 467.288 61.6505C467.088 62.0597 467.025 62.5225 467.11 62.97C467.11 69.62 467.11 76.28 467.11 82.97C467.16 84.39 467.11 86.15 468.41 87.1C469.71 88.05 471.49 88.1 473.06 88.5C473.06 89.5 473.06 90.5 473.06 91.5H453.63C453.63 90.5 453.63 89.5 453.63 88.55C455.86 88.07 459.39 87.89 459.57 84.91C459.66 76.26 459.57 67.61 459.57 58.97C457.72 58.1 455.9 57.2101 454.04 56.4001C454.04 55.9001 454.04 54.9101 454.04 54.4001M531.2 53.5C534.11 51.29 537.88 50.61 541.46 50.7C545.787 50.6531 550.05 51.7464 553.82 53.8701V63.3701H550.69C550.01 60.6201 548.96 57.65 546.38 56.13C544.986 55.3559 543.44 54.8941 541.85 54.7767C540.259 54.6593 538.663 54.889 537.17 55.45C533.44 56.79 532.74 62.8001 536.24 64.7801C541.37 67.5801 547.71 67.6801 552.43 71.3401C558.43 76.1701 557.09 87.1701 549.97 90.3401C542.85 93.5101 533.74 92.65 527.09 88.42C526.95 85.01 526.68 81.61 526.59 78.2H529.76C530.66 81.45 532.09 84.87 535.12 86.67C536.749 87.5614 538.559 88.0729 540.413 88.1664C542.268 88.26 544.12 87.933 545.83 87.2101C549.83 85.6401 550.66 79.21 546.83 77C542.08 74.36 536.34 74 531.71 71.11C525.71 67.45 525.71 57.6101 531.24 53.5301M729.88 51.44C732.633 51.44 735.39 51.44 738.15 51.44V52.64H734.7C734.7 55.56 734.7 58.4801 734.7 61.4001H733.2C733.31 58.4901 733.25 55.57 733.27 52.66H729.85V51.38M739.16 51.38H741.25C742.12 54.16 743.15 56.9 743.99 59.7C745.06 56.97 745.78 54.11 746.99 51.42C747.46 51.42 748.39 51.32 748.86 51.3C748.86 54.68 748.86 58.0601 748.86 61.4601H747.56C747.56 58.7601 747.56 56.05 747.49 53.35C746.66 56.07 745.7 58.74 744.79 61.45H743.37C742.43 58.87 741.61 56.25 740.57 53.7C740.13 56.45 741.23 59.5301 739.82 62.0301C738.55 58.6501 739.46 54.9301 739.19 51.4001M565.52 82.47C568.81 81.25 572.68 83.95 572.22 87.54C572.22 91.36 567.22 93.54 564.35 91.2C561.25 89.07 561.97 83.73 565.52 82.47Z" fill="white"/>
</g>
<defs>
<clipPath id="clip0_7043_3793">
<rect width="748.8" height="113.45" fill="white"/>
</clipPath>
</defs>
</svg>
