<?xml version="1.0" encoding="UTF-8" standalone="no"?>
<svg
   width="115"
   height="22.654301"
   viewBox="0 0 115 22.654301"
   fill="none"
   version="1.1"
   id="svg21"
   sodipodi:docname="homes-logo-white-r.svg"
   inkscape:version="1.3.2 (091e20e, 2023-11-25)"
   xmlns:inkscape="http://www.inkscape.org/namespaces/inkscape"
   xmlns:sodipodi="http://sodipodi.sourceforge.net/DTD/sodipodi-0.dtd"
   xmlns="http://www.w3.org/2000/svg"
   xmlns:svg="http://www.w3.org/2000/svg">
  <defs
     id="defs21" />
  <sodipodi:namedview
     id="namedview21"
     pagecolor="#ffffff"
     bordercolor="#000000"
     borderopacity="0.25"
     inkscape:showpageshadow="2"
     inkscape:pageopacity="0.0"
     inkscape:pagecheckerboard="0"
     inkscape:deskcolor="#d1d1d1"
     inkscape:zoom="3.664"
     inkscape:cx="57.587336"
     inkscape:cy="11.053493"
     inkscape:window-width="1392"
     inkscape:window-height="1212"
     inkscape:window-x="43"
     inkscape:window-y="25"
     inkscape:window-maximized="0"
     inkscape:current-layer="svg21" />
  <path
     fill-rule="evenodd"
     clip-rule="evenodd"
     d="m 3.2403309,4.9901302 7.6179701,2.10837 c 0.1525,0.041 0.3485,-0.0264 0.4398,-0.15253 l 2.7844,-3.83076 c 0.0903,-0.131 0.058,-0.31 -0.0728,-0.40069 l -3.9434,-2.65233997 c -0.1292001,-0.08654 -0.3362001,-0.08214 -0.4636001,0.0094 l -6.40724,4.66588997 c -0.12672,0.0947 -0.10567,0.20859 0.04487,0.25266"
     fill="#d24708"
     id="path1" />
  <path
     fill-rule="evenodd"
     clip-rule="evenodd"
     d="m 9.6027009,0.07158023 c 0.1274,-0.09154 0.3344,-0.09594 0.4636001,-0.0094 v 0 l 3.9434,2.65233997 c 0.1308,0.09069 0.1631,0.26969 0.0728,0.40069 v 0 l -2.7844,3.83076 c -0.0913,0.12613 -0.2873,0.19353 -0.4398,0.15253 v 0 l -7.6179701,-2.10837 c -0.15054,-0.04407 -0.17159,-0.15796 -0.04487,-0.25266 v 0 z"
     fill="#ff850f"
     id="path2" />
  <path
     fill-rule="evenodd"
     clip-rule="evenodd"
     d="m 15.665001,1.5006802 0.3554,7.91952 c 0.0051,0.1572 0.1315,0.3221 0.2786,0.3718 l 4.4948,1.4718998 c 0.1515,0.045 0.3105,-0.0419 0.3569,-0.1913 l 1.2961,-4.5836198 c 0.0414,-0.14949 -0.0264,-0.34767 -0.1531,-0.43921 l -6.4031,-4.67045 c -0.1289,-0.09161 -0.2302,-0.03721 -0.2256,0.12136"
     fill="#d24708"
     id="path3" />
  <path
     fill-rule="evenodd"
     clip-rule="evenodd"
     d="m 15.665001,1.5006802 0.3554,7.91952 c 0.0051,0.1572 0.1315,0.3221 0.2786,0.3718 l 4.4948,1.4718998 c 0.1515,0.045 0.3105,-0.0419 0.3569,-0.1913 l 1.2961,-4.5836198 c 0.0414,-0.14949 -0.0264,-0.34767 -0.1531,-0.43921 l -6.4031,-4.67045 c -0.1289,-0.09161 -0.2302,-0.03721 -0.2256,0.12136 z"
     fill="#ff850f"
     id="path4" />
  <path
     fill-rule="evenodd"
     clip-rule="evenodd"
     d="m 22.809401,12.2723 -7.4,2.7869 c -0.1459,0.0542 -0.2648,0.2256 -0.2648,0.3814 l -0.0059,4.7414 c 0.0035,0.1582 0.1333,0.285 0.2917,0.2806 l 4.7448,-0.18 c 0.1556,-0.0059 0.3209,-0.1318 0.3692,-0.2803 l 2.45,-7.5509 c 0.0464,-0.1523 -0.0376,-0.2328 -0.185,-0.1791"
     fill="#d24708"
     id="path5" />
  <path
     fill-rule="evenodd"
     clip-rule="evenodd"
     d="m 22.809401,12.2723 -7.4,2.7869 c -0.1459,0.0542 -0.2648,0.2256 -0.2648,0.3814 l -0.0059,4.7414 c 0.0035,0.1582 0.1333,0.285 0.2917,0.2806 l 4.7448,-0.18 c 0.1556,-0.0059 0.3209,-0.1318 0.3692,-0.2803 l 2.45,-7.5509 c 0.0464,-0.1523 -0.0376,-0.2328 -0.185,-0.1791 z"
     fill="#ff850f"
     id="path6" />
  <path
     fill-rule="evenodd"
     clip-rule="evenodd"
     d="M 14.804101,22.4233 9.8767009,16.225 c -0.0963,-0.1224 -0.2967,-0.1844 -0.4442,-0.1362 l -4.4976,1.458 c -0.14992,0.0528 -0.2286,0.2155 -0.17623,0.3669 l 1.63513,4.4712 c 0.0552,0.1454 0.2258,0.2646 0.3817,0.2646 l 7.9172001,0.0048 c 0.1575,-0.0026 0.2086,-0.1051 0.1114,-0.231"
     fill="#d24708"
     id="path7" />
  <path
     fill-rule="evenodd"
     clip-rule="evenodd"
     d="M 14.804101,22.4233 9.8767009,16.225 c -0.0963,-0.1224 -0.2967,-0.1844 -0.4442,-0.1362 l -4.4976,1.458 c -0.14992,0.0528 -0.2286,0.2155 -0.17623,0.3669 l 1.63513,4.4712 c 0.0552,0.1454 0.2258,0.2646 0.3817,0.2646 l 7.9172001,0.0048 c 0.1575,-0.0026 0.2086,-0.1051 0.1114,-0.231 z"
     fill="#ff850f"
     id="path8" />
  <path
     fill-rule="evenodd"
     clip-rule="evenodd"
     d="M 2.4598509,17.8869 0.01705089,10.3314 c -0.04897,-0.1497 0.0113,-0.3494998 0.13267,-0.4447998 l 3.73456001,-2.94401 c 0.12602,-0.09592 0.3051,-0.0705 0.40111,0.05417 L 7.0582009,10.838 c 0.091,0.1255 0.095,0.3348 0.0078,0.4647 l -4.35334,6.6169 c -0.08904,0.1318 -0.2023,0.1161 -0.25281,-0.0327"
     fill="#d24708"
     id="path9" />
  <path
     fill-rule="evenodd"
     clip-rule="evenodd"
     d="M 4.2853909,6.9967602 7.0582009,10.838 c 0.091,0.1255 0.095,0.3348 0.0078,0.4647 l -4.35334,6.6169 c -0.08904,0.1318 -0.2023,0.1161 -0.25281,-0.0327 L 0.01705089,10.3314 c -0.04897,-0.1497 0.0113,-0.3494998 0.13267,-0.4447998 l 3.73456001,-2.94401 c 0.12602,-0.09592 0.3051,-0.0705 0.40111,0.05417 z"
     fill="#ff850f"
     id="path10" />
  <path
     fill-rule="evenodd"
     clip-rule="evenodd"
     d="m 38.731801,12.3077 h -6.4636 v 3.7846 c 0,0.2565 0.0363,0.4642 0.1089,0.6231 0.0726,0.1591 0.1791,0.2822 0.3196,0.3693 0.1402,0.0872 0.3145,0.1487 0.5229,0.1845 0.2081,0.0361 0.4478,0.0592 0.719,0.0693 V 18 h -4.9386 v -0.6615 c 0.271,-0.0101 0.5107,-0.0332 0.719,-0.0693 0.2082,-0.0358 0.3824,-0.0973 0.5229,-0.1845 0.1403,-0.0871 0.2469,-0.2102 0.3196,-0.3693 0.0726,-0.1589 0.1089,-0.3666 0.1089,-0.6231 V 7.9076002 c 0,-0.2562 -0.0363,-0.4639 -0.1089,-0.623 -0.0727,-0.1589 -0.1793,-0.282 -0.3196,-0.36928 -0.1405,-0.08697 -0.3147,-0.14854 -0.5229,-0.18463 -0.2083,-0.03577 -0.448,-0.05888 -0.719,-0.06925 v -0.66144 h 4.9386 v 0.66144 c -0.2712,0.01037 -0.5109,0.03348 -0.719,0.06925 -0.2084,0.03609 -0.3827,0.09766 -0.5229,0.18463 -0.1405,0.08728 -0.247,0.21038 -0.3196,0.36928 -0.0726,0.1591 -0.1089,0.3668 -0.1089,0.623 V 11.4615 h 6.4636 V 7.9076002 c 0,-0.2562 -0.0363,-0.4639 -0.1089,-0.623 -0.0726,-0.1589 -0.1792,-0.282 -0.3195,-0.36928 -0.1405,-0.08697 -0.3148,-0.14854 -0.5229,-0.18463 -0.2084,-0.03577 -0.448,-0.05888 -0.719,-0.06925 v -0.66144 h 4.9385 v 0.66144 c -0.2712,0.01037 -0.5108,0.03348 -0.7189,0.06925 -0.2084,0.03609 -0.3827,0.09766 -0.523,0.18463 -0.1405,0.08728 -0.2469,0.21038 -0.3196,0.36928 -0.0725,0.1591 -0.1089,0.3668 -0.1089,0.623 V 16.0923 c 0,0.2565 0.0364,0.4642 0.1089,0.6231 0.0727,0.1591 0.1791,0.2822 0.3196,0.3693 0.1403,0.0872 0.3146,0.1487 0.523,0.1845 0.2081,0.0361 0.4477,0.0592 0.7189,0.0693 V 18 h -4.9385 v -0.6615 c 0.271,-0.0101 0.5106,-0.0332 0.719,-0.0693 0.2081,-0.0358 0.3824,-0.0973 0.5229,-0.1845 0.1403,-0.0871 0.2469,-0.2102 0.3195,-0.3693 0.0726,-0.1589 0.1089,-0.3666 0.1089,-0.6231 v -3.7846"
     fill="#ffffff"
     id="path11" />
  <path
     fill-rule="evenodd"
     clip-rule="evenodd"
     d="m 46.289901,17.0983 c 0.3671,0 0.6859,-0.0678 0.9565,-0.2037 0.2704,-0.1357 0.495,-0.3273 0.6739,-0.5746 0.1786,-0.2473 0.3139,-0.5382 0.4058,-0.8727 0.0917,-0.3346 0.1377,-0.7005 0.1377,-1.0982 0,-0.4654 -0.063,-0.909 -0.1884,-1.3309 -0.1257,-0.4217 -0.3044,-0.7877 -0.5362,-1.0981 -0.232,-0.3102 -0.5195,-0.5576 -0.8624,-0.7419 -0.3431,-0.184 -0.7318,-0.2764 -1.1666,-0.2764 -0.3576,0 -0.674,0.068 -0.9494,0.2037 -0.2753,0.1359 -0.5024,0.3273 -0.681,0.5745 -0.179,0.2473 -0.3141,0.5382 -0.4059,0.8728 -0.0919,0.3345 -0.1376,0.7007 -0.1376,1.0981 0,0.4655 0.0627,0.9092 0.1884,1.3309 0.1254,0.4218 0.3044,0.788 0.5362,1.0982 0.2319,0.3105 0.5193,0.5577 0.8623,0.7418 0.3428,0.1843 0.7319,0.2765 1.1667,0.2765 z M 45.855101,18 c -0.5702,0 -1.0919,-0.097 -1.5652,-0.2909 -0.4735,-0.1939 -0.8793,-0.4605 -1.2174,-0.8 -0.3383,-0.3393 -0.6014,-0.7441 -0.7899,-1.2145 -0.1884,-0.4703 -0.2826,-0.9866 -0.2826,-1.5491 0,-0.64 0.111,-1.2146 0.3333,-1.7236 0.2222,-0.5091 0.5218,-0.943 0.8986,-1.3019 0.3768,-0.3586 0.8163,-0.635 1.3189,-0.829 0.5022,-0.194 1.0337,-0.291 1.5942,-0.291 0.5699,0 1.0916,0.0946 1.5652,0.2836 0.4732,0.1891 0.879,0.456 1.2174,0.8001 0.3381,0.3443 0.6014,0.7516 0.7898,1.2218 0.1884,0.4705 0.2826,0.9868 0.2826,1.5491 0,0.64 -0.1112,1.2145 -0.3333,1.7236 -0.2224,0.5091 -0.5217,0.9432 -0.8986,1.3019 -0.3768,0.3587 -0.8165,0.6351 -1.3188,0.829 -0.5025,0.1939 -1.034,0.2909 -1.5942,0.2909 z"
     fill="#ffffff"
     id="path12" />
  <path
     fill-rule="evenodd"
     clip-rule="evenodd"
     d="m 58.652401,11.4667 c 0.1385,-0.1778 0.3064,-0.3556 0.5044,-0.5334 0.1975,-0.1777 0.4201,-0.3356 0.6674,-0.474 0.2469,-0.1382 0.509,-0.2493 0.7859,-0.3333 0.2767,-0.0839 0.5585,-0.126 0.8454,-0.126 0.7315,0 1.3074,0.2 1.7278,0.6 0.42,0.4 0.6303,0.9507 0.6303,1.6519 v 4.3259 c 0,0.1681 0.0296,0.3037 0.0889,0.4074 0.0593,0.1037 0.1409,0.1828 0.2447,0.237 0.1038,0.0544 0.2298,0.0964 0.3781,0.1259 0.1484,0.0297 0.3063,0.0544 0.4747,0.0741 V 18 h -3.856 v -0.5778 c 0.1681,-0.0197 0.3264,-0.0444 0.4746,-0.0741 0.1483,-0.0295 0.2743,-0.0715 0.3782,-0.1259 0.1039,-0.0542 0.1853,-0.1333 0.2446,-0.237 0.0595,-0.1037 0.0891,-0.2393 0.0891,-0.4074 v -3.9407 c 0,-0.4938 -0.126,-0.8567 -0.3781,-1.0889 -0.2523,-0.2319 -0.6155,-0.3482 -1.0901,-0.3482 -0.356,0 -0.7318,0.0816 -1.1272,0.2444 -0.3955,0.163 -0.7267,0.373 -0.9936,0.6297 v 4.5037 c 0,0.1681 0.0297,0.3037 0.089,0.4074 0.0593,0.1037 0.1408,0.1828 0.2446,0.237 0.1039,0.0544 0.23,0.0964 0.3782,0.1259 0.1485,0.0297 0.3064,0.0544 0.4746,0.0741 V 18 h -3.8559 v -0.5778 c 0.168,-0.0197 0.3262,-0.0444 0.4746,-0.0741 0.1483,-0.0295 0.2744,-0.0715 0.3782,-0.1259 0.1038,-0.0542 0.1854,-0.1333 0.2446,-0.237 0.0593,-0.1037 0.089,-0.2393 0.089,-0.4074 v -3.9407 c 0,-0.4938 -0.126,-0.8567 -0.3782,-1.0889 -0.2521,-0.2319 -0.6154,-0.3482 -1.09,-0.3482 -0.3559,0 -0.7318,0.0816 -1.1271,0.2444 -0.3955,0.163 -0.7267,0.373 -0.9936,0.6297 v 4.5037 c 0,0.1681 0.0297,0.3037 0.0889,0.4074 0.0594,0.1037 0.1409,0.1828 0.2448,0.237 0.1038,0.0544 0.2298,0.0964 0.3781,0.1259 0.1483,0.0297 0.3064,0.0544 0.4746,0.0741 V 18 h -3.8559 v -0.5778 c 0.168,-0.0197 0.3263,-0.0444 0.4745,-0.0741 0.1484,-0.0295 0.2744,-0.0715 0.3783,-0.1259 0.1038,-0.0542 0.1853,-0.1333 0.2446,-0.237 0.0594,-0.1037 0.089,-0.2393 0.089,-0.4074 v -4.9629 l -1.1122,-0.5186 V 10.7408 L 53.224601,10 h 0.519 l -0.0741,1.4075 c 0.1383,-0.1778 0.304,-0.3505 0.4968,-0.5186 0.1928,-0.1678 0.4078,-0.3185 0.6451,-0.4519 0.2373,-0.1332 0.4894,-0.2392 0.7564,-0.3184 0.2669,-0.079 0.5387,-0.1186 0.8156,-0.1186 0.5833,0 1.0727,0.126 1.4683,0.3778 0.3953,0.2519 0.6622,0.6149 0.8007,1.0889"
     fill="#ffffff"
     id="path13" />
  <path
     fill-rule="evenodd"
     clip-rule="evenodd"
     d="m 68.442601,10.9018 c -0.5737,0 -1.0377,0.1723 -1.3914,0.5164 -0.3539,0.3444 -0.569,0.7928 -0.6455,1.3455 h 4.002 c 0,-0.252 -0.0408,-0.492 -0.1219,-0.72 -0.0813,-0.2277 -0.2057,-0.4266 -0.3729,-0.5964 -0.1674,-0.1695 -0.373,-0.303 -0.6168,-0.4 -0.2438,-0.0968 -0.5285,-0.1455 -0.8535,-0.1455 z M 68.801201,10 c 0.5258,0 0.9873,0.0777 1.3843,0.2328 0.3967,0.1551 0.729,0.3709 0.9969,0.6473 0.2676,0.2763 0.4684,0.6035 0.6024,0.9818 0.1339,0.3782 0.2009,0.7854 0.2009,1.2217 v 0.4074 h -5.623 c 0,0.9988 0.2223,1.789 0.667,2.3708 0.4446,0.5818 1.1404,0.8727 2.0871,0.8727 0.6024,0 1.1045,-0.1163 1.5061,-0.3491 0.4017,-0.2327 0.7219,-0.4993 0.9612,-0.7999 l 0.4159,0.1891 c -0.0767,0.2618 -0.1986,0.5261 -0.3658,0.7927 -0.1674,0.2668 -0.3873,0.5068 -0.6598,0.7199 -0.2725,0.2134 -0.5978,0.3855 -0.9754,0.5164 -0.3779,0.1309 -0.8201,0.1964 -1.3269,0.1964 -0.5738,0 -1.0878,-0.097 -1.542,-0.2909 -0.4543,-0.1939 -0.8391,-0.4605 -1.1547,-0.8 -0.3155,-0.3393 -0.5572,-0.7368 -0.7244,-1.1927 -0.1674,-0.4557 -0.251,-0.9455 -0.251,-1.4691 0,-0.64 0.0955,-1.2193 0.2869,-1.7382 0.1912,-0.5186 0.4541,-0.9647 0.7889,-1.3381 0.3346,-0.3733 0.7363,-0.6618 1.2049,-0.8655 0.4685,-0.2037 0.9755,-0.3055 1.5205,-0.3055 z"
     fill="#ffffff"
     id="path14" />
  <path
     fill-rule="evenodd"
     clip-rule="evenodd"
     d="m 75.924001,18 c -0.6162,0 -1.1642,-0.0705 -1.6438,-0.2109 -0.4799,-0.1405 -0.8764,-0.3223 -1.1893,-0.5455 l -0.0909,-1.9345 h 0.6363 c 0.1615,0.6305 0.4242,1.108 0.7878,1.4327 0.3636,0.325 0.8636,0.4873 1.4999,0.4873 0.5353,0 0.9519,-0.1091 1.25,-0.3273 0.2977,-0.2181 0.4473,-0.5404 0.4473,-0.9673 0,-0.349 -0.1216,-0.6083 -0.364,-0.7782 -0.2424,-0.1694 -0.5809,-0.3174 -1.0151,-0.4435 l -1.0605,-0.3201 c -0.3133,-0.0968 -0.5985,-0.2036 -0.8561,-0.3199 -0.2575,-0.1165 -0.4748,-0.2569 -0.6515,-0.4219 -0.1768,-0.1647 -0.3131,-0.3659 -0.409,-0.6036 -0.0961,-0.2375 -0.144,-0.5211 -0.144,-0.8509 0,-0.6786 0.2524,-1.2146 0.7576,-1.6073 0.505,-0.3927 1.1868,-0.5891 2.0453,-0.5891 0.5455,0 1.0277,0.0559 1.4471,0.1673 0.4186,0.1116 0.8051,0.2643 1.1589,0.4582 v 1.8037 h -0.6367 c -0.1208,-0.5914 -0.346,-1.0157 -0.6741,-1.2728 -0.3282,-0.2568 -0.775,-0.3854 -1.3406,-0.3854 -0.4143,0 -0.75,0.0922 -1.0075,0.2763 -0.2576,0.1843 -0.3863,0.4654 -0.3863,0.8437 0,0.3104 0.0908,0.5432 0.2727,0.6981 0.1818,0.1553 0.4644,0.291 0.8484,0.4073 l 1.1969,0.3491 c 0.3532,0.097 0.6665,0.2109 0.9393,0.3419 0.2728,0.1308 0.5027,0.2861 0.6897,0.4653 0.1863,0.1796 0.3282,0.3928 0.424,0.6401 0.0959,0.2473 0.1442,0.5454 0.1442,0.8945 0,0.7177 -0.2806,1.2825 -0.8409,1.6945 -0.5612,0.4123 -1.3059,0.6182 -2.2351,0.6182"
     fill="#ffffff"
     id="path15" />
  <path
     fill-rule="evenodd"
     clip-rule="evenodd"
     d="m 80.000001,17 c 0,-0.277 0.0969,-0.513 0.292,-0.7078 0.1951,-0.1948 0.4304,-0.2922 0.7077,-0.2922 0.2773,0 0.5132,0.0974 0.7083,0.2922 0.1944,0.1948 0.292,0.4308 0.292,0.7078 0,0.2771 -0.0976,0.513 -0.292,0.7078 -0.1951,0.1948 -0.431,0.2922 -0.7083,0.2922 -0.2773,0 -0.5126,-0.0974 -0.7077,-0.2922 -0.1951,-0.1948 -0.292,-0.4307 -0.292,-0.7078"
     fill="#ffffff"
     id="path16" />
  <path
     fill-rule="evenodd"
     clip-rule="evenodd"
     d="m 84.379701,13.6945 c 0,0.9408 0.23,1.6826 0.6899,2.2255 0.4607,0.5432 1.1409,0.8145 2.0415,0.8145 0.6034,0 1.1069,-0.1163 1.5092,-0.3491 0.4022,-0.2327 0.7238,-0.4993 0.9634,-0.7999 l 0.4163,0.1891 c -0.0762,0.2618 -0.1989,0.5261 -0.366,0.7927 -0.1679,0.2668 -0.3882,0.5068 -0.6618,0.7199 -0.2728,0.2134 -0.5989,0.3855 -0.9767,0.5164 -0.3794,0.1309 -0.8223,0.1964 -1.3302,0.1964 -0.6226,0 -1.1639,-0.1091 -1.6238,-0.3273 -0.4599,-0.2181 -0.8414,-0.5018 -1.1431,-0.8509 -0.3017,-0.3491 -0.5272,-0.7491 -0.6758,-1.2 -0.1487,-0.4509 -0.2226,-0.909 -0.2226,-1.3745 0,-0.64 0.1028,-1.2218 0.3091,-1.7454 0.2063,-0.5236 0.4932,-0.972 0.8621,-1.3455 0.369,-0.3732 0.8075,-0.6594 1.3154,-0.8582 0.508,-0.1986 1.0589,-0.2982 1.6534,-0.2982 0.8429,0 1.5039,0.1796 1.9838,0.5382 0.4784,0.3589 0.7187,0.8098 0.7187,1.3528 0,0.2232 -0.0532,0.4145 -0.1582,0.5745 -0.1058,0.16 -0.2396,0.2789 -0.403,0.3563 h -0.9775 v -0.5962 c 0,-0.4558 -0.1124,-0.8001 -0.3372,-1.0328 -0.2255,-0.2328 -0.5967,-0.3491 -1.1143,-0.3491 -0.3549,0 -0.6854,0.0631 -0.9915,0.1891 -0.3069,0.1261 -0.5679,0.3105 -0.7838,0.5527 -0.2152,0.2425 -0.386,0.5406 -0.5102,0.8945 -0.1242,0.3541 -0.1871,0.7589 -0.1871,1.2145"
     fill="#ffffff"
     id="path17" />
  <path
     fill-rule="evenodd"
     clip-rule="evenodd"
     d="m 95.290001,17.0983 c 0.366,0 0.685,-0.0678 0.956,-0.2037 0.271,-0.1357 0.495,-0.3273 0.674,-0.5746 0.179,-0.2473 0.314,-0.5382 0.406,-0.8727 0.091,-0.3346 0.138,-0.7005 0.138,-1.0982 0,-0.4654 -0.063,-0.909 -0.189,-1.3309 -0.125,-0.4217 -0.304,-0.7877 -0.536,-1.0981 -0.232,-0.3102 -0.52,-0.5576 -0.863,-0.7419 -0.343,-0.184 -0.731,-0.2764 -1.1664,-0.2764 -0.3571,0 -0.6732,0.068 -0.949,0.2037 -0.2751,0.1359 -0.5025,0.3273 -0.6814,0.5745 -0.1789,0.2473 -0.3138,0.5382 -0.4055,0.8728 -0.0917,0.3345 -0.138,0.7007 -0.138,1.0981 0,0.4655 0.0634,0.9092 0.1887,1.3309 0.1252,0.4218 0.3041,0.788 0.536,1.0982 0.2326,0.3105 0.5196,0.5577 0.8625,0.7418 0.3429,0.1843 0.7321,0.2765 1.1671,0.2765 z M 94.855001,18 c -0.5703,0 -1.0922,-0.097 -1.5656,-0.2909 -0.4734,-0.1939 -0.8789,-0.4605 -1.2174,-0.8 -0.3377,-0.3393 -0.6008,-0.7441 -0.7895,-1.2145 -0.1886,-0.4703 -0.2825,-0.9866 -0.2825,-1.5491 0,-0.64 0.1111,-1.2146 0.3332,-1.7236 0.2222,-0.5091 0.5219,-0.943 0.8984,-1.3019 0.3772,-0.3586 0.8163,-0.635 1.3188,-0.829 0.5024,-0.194 1.034,-0.291 1.5946,-0.291 0.57,0 1.091,0.0946 1.565,0.2836 0.473,0.1891 0.879,0.456 1.217,0.8001 0.339,0.3443 0.602,0.7516 0.79,1.2218 0.188,0.4705 0.283,0.9868 0.283,1.5491 0,0.64 -0.111,1.2145 -0.333,1.7236 -0.223,0.5091 -0.522,0.9432 -0.899,1.3019 -0.377,0.3587 -0.817,0.6351 -1.319,0.829 -0.503,0.1939 -1.034,0.2909 -1.594,0.2909 z"
     fill="#ffffff"
     id="path18" />
  <path
     fill-rule="evenodd"
     clip-rule="evenodd"
     d="m 106.653,11.4667 c 0.138,-0.1778 0.306,-0.3556 0.504,-0.5334 0.198,-0.1777 0.42,-0.3356 0.667,-0.474 0.248,-0.1382 0.509,-0.2493 0.786,-0.3333 0.277,-0.0839 0.559,-0.126 0.846,-0.126 0.731,0 1.307,0.2 1.728,0.6 0.42,0.4 0.63,0.9507 0.63,1.6519 v 4.3259 c 0,0.1681 0.029,0.3037 0.089,0.4074 0.059,0.1037 0.141,0.1828 0.245,0.237 0.104,0.0544 0.229,0.0964 0.377,0.1259 0.149,0.0297 0.307,0.0544 0.475,0.0741 V 18 h -3.856 v -0.5778 c 0.168,-0.0197 0.327,-0.0444 0.475,-0.0741 0.148,-0.0295 0.274,-0.0715 0.378,-0.1259 0.104,-0.0542 0.186,-0.1333 0.245,-0.237 0.059,-0.1037 0.089,-0.2393 0.089,-0.4074 v -3.9407 c 0,-0.4938 -0.126,-0.8567 -0.379,-1.0889 C 109.7,11.3163 109.337,11.2 108.863,11.2 c -0.356,0 -0.733,0.0816 -1.128,0.2444 -0.395,0.163 -0.726,0.373 -0.993,0.6297 v 4.5037 c 0,0.1681 0.03,0.3037 0.088,0.4074 0.06,0.1037 0.142,0.1828 0.245,0.237 0.104,0.0544 0.23,0.0964 0.379,0.1259 0.148,0.0297 0.306,0.0544 0.474,0.0741 V 18 h -3.856 v -0.5778 c 0.168,-0.0197 0.326,-0.0444 0.475,-0.0741 0.148,-0.0295 0.274,-0.0715 0.378,-0.1259 0.103,-0.0542 0.185,-0.1333 0.245,-0.237 0.059,-0.1037 0.089,-0.2393 0.089,-0.4074 v -3.9407 c 0,-0.4938 -0.127,-0.8567 -0.379,-1.0889 -0.252,-0.2319 -0.615,-0.3482 -1.09,-0.3482 -0.355,0 -0.731,0.0816 -1.127,0.2444 -0.395,0.163 -0.727,0.373 -0.994,0.6297 v 4.5037 c 0,0.1681 0.03,0.3037 0.09,0.4074 0.059,0.1037 0.141,0.1828 0.245,0.237 0.103,0.0544 0.229,0.0964 0.377,0.1259 0.149,0.0297 0.307,0.0544 0.475,0.0741 V 18 h -3.855999 v -0.5778 c 0.168,-0.0197 0.327,-0.0444 0.475,-0.0741 0.148,-0.0295 0.274,-0.0715 0.378,-0.1259 0.104,-0.0542 0.184999,-0.1333 0.244999,-0.237 0.059,-0.1037 0.088,-0.2393 0.088,-0.4074 V 11.6149 L 99.074001,11.0963 V 10.7408 L 101.225,10 h 0.518 l -0.074,1.4075 c 0.139,-0.1778 0.305,-0.3505 0.497,-0.5186 0.193,-0.1678 0.408,-0.3185 0.645,-0.4519 0.238,-0.1332 0.49,-0.2392 0.757,-0.3184 0.267,-0.079 0.539,-0.1186 0.816,-0.1186 0.583,0 1.072,0.126 1.468,0.3778 0.395,0.2519 0.662,0.6149 0.801,1.0889"
     fill="#ffffff"
     id="path19" />
  <path
     fill-rule="evenodd"
     clip-rule="evenodd"
     d="m 114,10 v 0.1192 h -0.415 V 11 h -0.17 V 10.1192 H 113 V 10 h 1"
     fill="#ffffff"
     id="path20" />
  <path
     fill-rule="evenodd"
     clip-rule="evenodd"
     d="m 114,10 h 0.203 l 0.299,0.8456 L 114.799,10 H 115 v 1 h -0.134 v -0.5901 c 0,-0.0205 0,-0.0544 0.001,-0.1015 10e-4,-0.0472 10e-4,-0.0978 10e-4,-0.1518 L 114.571,11 h -0.14 l -0.3,-0.8434 v 0.0305 c 0,0.0246 0.001,0.062 0.002,0.1121 0.001,0.0502 0.002,0.0871 0.002,0.1107 V 11 H 114 v -1"
     fill="#ffffff"
     id="path21" />
</svg>
