<?xml version="1.0" encoding="UTF-8" standalone="no"?>
<svg
   width="512"
   height="256"
   viewBox="0 0 512 256"
   fill="none"
   version="1.1"
   id="svg16"
   xmlns="http://www.w3.org/2000/svg"
   xmlns:svg="http://www.w3.org/2000/svg">
  <defs
     id="defs16" />
  <path
     d="m 191.75087,84.510621 -3.99824,-31.967945 -16.12902,41.557995 h -2.46025 l -17.1541,-41.833103 -3.86142,32.243053 c -0.0684,0.54985 -0.13682,1.58116 -0.13682,1.8215 0,3.67813 1.81125,4.57187 6.97102,4.84697 v 2.92158 h -17.29055 v -2.92158 c 4.13468,-0.20633 5.6723,-1.03129 6.11643,-4.57186 l 4.57917,-37.158074 c 0,-4.021904 -1.29872,-5.293736 -6.1168,-5.499996 v -2.921759 h 13.42953 c 0.13681,1.684316 0.51254,2.646795 1.16189,4.227981 l 15.24041,37.570558 14.38618,-37.570558 c 0.58096,-1.581186 1.02507,-2.509315 1.1619,-4.227981 h 13.08783 v 2.921759 c -4.85246,0.20626 -6.1168,1.51248 -6.1168,5.499996 l 4.57918,37.158074 c 0.44413,3.54057 2.01613,4.36553 6.11643,4.57186 v 2.92158 h -20.40018 v -2.92158 c 5.15978,-0.2751 6.97104,-1.16884 6.97104,-4.84697 0,-3.67775 -0.0684,-1.30603 -0.13683,-1.8215 z"
     fill="#ffffff"
     fill-opacity="0.6"
     id="path1"
     style="fill:#ffffff;stroke-width:3.65837" />
  <path
     d="m 221.75391,89.872701 c 3.79299,0 5.94595,-1.75309 8.98714,-4.22798 v -10.0715 l -11.31095,3.74654 c -2.25501,0.75654 -3.55374,2.09698 -3.55374,4.70942 0,3.88409 2.32381,5.84352 5.87755,5.84352 z m 15.41125,-19.45559 v 14.78092 c 0,2.99035 1.0935,4.64028 3.04156,4.64028 1.94773,0 1.87931,-0.13756 2.83598,-0.4123 l 0.64936,2.09661 c -2.25538,2.30295 -4.33993,3.26547 -6.69775,3.26547 -2.35782,0 -5.02293,-2.4405 -6.0824,-6.18705 -2.39184,2.78403 -6.08241,6.18705 -12.06238,6.18705 -5.98034,0 -9.80736,-4.02165 -9.80736,-9.31533 0,-5.29365 4.2715,-7.83731 9.2264,-9.3153 l 12.47248,-3.88409 v -1.44396 c 0,-5.56841 -2.46024,-9.93395 -7.99609,-9.93395 -5.53585,0 -5.365,1.58116 -5.365,5.01856 0,3.43741 0.13682,1.89064 0.30766,3.26547 l -5.365,0.68777 c -0.88862,-0.96252 -1.43517,-2.0282 -1.43517,-3.67814 0,-5.568763 5.80913,-8.834226 13.05342,-8.834226 7.24431,0 13.22429,3.471796 13.22429,13.062216 z"
     fill="#ffffff"
     fill-opacity="0.6"
     id="path2"
     style="fill:#ffffff;stroke-width:3.65837" />
  <path
     d="m 255.03667,50.274118 v 7.768555 h 10.08064 v 3.746538 h -10.08064 v 20.96833 c 0,4.91538 2.01613,7.08077 5.94595,7.08077 3.92982,0 3.41692,-0.34353 5.15977,-1.23727 l 0.78619,1.89066 c -1.6064,1.89027 -4.51078,4.29675 -8.98716,4.29675 -4.47676,0 -9.36323,-2.64682 -9.36323,-9.65919 v -23.34005 h -4.9549 v -2.371724 c 3.41728,-2.165392 6.1852,-4.777836 9.49969,-9.108977 h 1.94772 z"
     fill="#ffffff"
     fill-opacity="0.6"
     id="path3"
     style="fill:#ffffff;stroke-width:3.65837" />
  <path
     d="m 280.08443,50.274118 v 7.768555 h 10.08065 v 3.746538 h -10.08065 v 20.96833 c 0,4.91538 2.01614,7.08077 5.94596,7.08077 3.92946,0 3.41693,-0.34353 5.15977,-1.23727 l 0.78582,1.89066 c -1.60603,1.89027 -4.51041,4.29675 -8.98715,4.29675 -4.47639,0 -9.36288,-2.64682 -9.36288,-9.65919 v -23.34005 h -4.9549 v -2.371724 c 3.4173,-2.165392 6.18521,-4.777836 9.4997,-9.108977 h 1.94771 z"
     fill="#ffffff"
     fill-opacity="0.6"
     id="path4"
     style="fill:#ffffff;stroke-width:3.65837" />
  <path
     d="m 310.80452,57.354895 c 9.43128,0 14.31777,6.256176 14.31777,14.437026 v 1.89066 h -25.28667 c 0,9.38408 3.86141,15.15882 12.40408,15.15882 8.54303,0 8.98716,-2.57805 11.10571,-5.36207 l 1.87968,0.89374 c -1.43518,4.94978 -5.87755,10.41501 -14.96713,10.41501 -9.08995,0 -16.53913,-7.83695 -16.53913,-17.56493 0,-9.72799 7.24431,-19.868256 17.12007,-19.868256 z m -1.64005,4.227986 c -5.09172,0 -8.44059,3.60935 -9.15799,8.69668 h 18.00833 c 0,-4.77783 -3.04121,-8.69668 -8.85034,-8.69668 z"
     fill="#ffffff"
     fill-opacity="0.6"
     id="path5"
     style="fill:#ffffff;stroke-width:3.65837" />
  <path
     d="m 340.39746,57.354895 -0.30767,10.415386 c 3.04119,-5.63718 5.94595,-10.415386 10.66159,-10.415386 4.71563,0 2.52866,0.412669 3.17802,0.962521 v 6.324965 h -2.66549 c -4.13469,0 -6.83421,1.03092 -11.17412,6.32458 v 16.32769 c 0,3.40301 1.67443,3.60934 6.45848,4.15919 v 2.64683 h -18.07674 v -2.64683 c 2.97279,-0.41229 5.15977,-0.75618 5.15977,-3.88409 v -22.79019 l -4.8521,-2.37173 v -1.64991 l 9.36287,-3.403026 z"
     fill="#ffffff"
     fill-opacity="0.6"
     id="path6"
     style="fill:#ffffff;stroke-width:3.65837" />
  <path
     d="m 377.64333,94.788081 c -3.85958,0 -6.83273,-1.09971 -8.91728,-2.71524 v 11.824589 c 0,3.1279 2.18735,3.47179 5.16014,3.88409 v 2.64684 H 357.1078 v -2.64684 c 2.97315,-0.4123 5.16013,-0.75619 5.16013,-3.88409 V 64.779561 l -4.85246,-2.37173 v -1.64991 l 9.36286,-3.403026 h 2.25539 l -0.30767,6.324966 c 2.76792,-3.746905 7.27833,-6.324966 12.33787,-6.324966 9.94344,0 15.17126,7.630996 15.17126,17.015086 0,9.38409 -8.40694,20.4181 -18.59185,20.4181 z m 0.68412,-3.88409 c 6.76799,0 11.24218,-4.91538 11.24218,-13.68084 0,-8.76547 -2.66331,-14.71215 -10.96781,-14.71215 -8.30377,0 -7.68842,2.02821 -9.87577,4.50309 v 15.29639 c 0,6.46215 4.71747,8.55911 9.6014,8.55911 z"
     fill="#ffffff"
     fill-opacity="0.6"
     id="path7"
     style="fill:#ffffff;stroke-width:3.65837" />
  <path
     d="m 418.85488,90.560101 c 6.46069,0 9.67274,-5.43084 9.67274,-12.85588 0,-7.42466 -4.51077,-16.12134 -12.27018,-16.12134 -7.75574,0 -9.66907,5.43122 -9.66907,12.85588 0,7.42466 4.51077,16.12134 12.26651,16.12134 z m -1.94624,4.22799 c -10.18492,0 -17.15411,-7.56222 -17.15411,-18.04639 0,-10.48378 8.50937,-19.386806 18.45282,-19.386806 9.94347,0 17.15411,7.562216 17.15411,18.046386 0,10.48416 -8.50937,19.38681 -18.45282,19.38681 z"
     fill="#ffffff"
     fill-opacity="0.6"
     id="path8"
     style="fill:#ffffff;stroke-width:3.65837" />
  <path
     d="m 450.97539,57.354895 -0.30731,10.415386 c 3.04376,-5.63718 5.94852,-10.415386 10.66416,-10.415386 4.71563,0 2.52792,0.412669 3.14255,0.962521 v 6.324965 h -2.63038 c -4.13762,0 -6.83384,1.03092 -11.17633,6.32458 v 16.32769 c 0,3.40301 1.67553,3.60934 6.46069,4.15919 v 2.64683 H 439.0491 v -2.64683 c 2.97426,-0.41229 5.16197,-0.75618 5.16197,-3.88409 v -22.79019 l -4.85467,-2.37173 v -1.64991 l 9.36544,-3.403026 z"
     fill="#ffffff"
     fill-opacity="0.6"
     id="path9"
     style="fill:#ffffff;stroke-width:3.65837" />
  <path
     d="m 479.44118,50.274118 v 7.768555 h 10.08247 v 3.746538 h -10.08247 v 20.96833 c 0,4.91538 1.98283,7.08077 5.94851,7.08077 3.96202,0 3.41692,-0.34353 5.1583,-1.23727 l 0.78655,1.89066 c -1.60603,1.89027 -4.51077,4.29675 -8.95204,4.29675 -4.44491,0 -9.36543,-2.64682 -9.36543,-9.65919 v -23.34005 h -4.95344 v -2.371724 c 3.41694,-2.165392 6.18266,-4.777836 9.5008,-9.108977 h 1.94625 z"
     fill="#ffffff"
     fill-opacity="0.6"
     id="path10"
     style="fill:#ffffff;stroke-width:3.65837" />
  <path
     fill-rule="evenodd"
     clip-rule="evenodd"
     d="m 50.725039,13.081364 c 0.58095,-0.412489 1.50359,-0.446863 2.08454,-0.03438 l 17.632619,11.927771 c 0.580583,0.412482 0.717407,1.203093 0.341692,1.787444 L 58.345427,43.98355 c -0.410104,0.584351 -1.298723,0.859351 -1.982106,0.687481 L 22.294262,35.183813 C 21.610841,34.97759 21.542503,34.461979 22.089246,34.049461 Z"
     fill="#ffffff"
     fill-opacity="0.6"
     id="path11"
     style="fill:#ffffff;stroke-width:3.65837" />
  <path
     fill-rule="evenodd"
     clip-rule="evenodd"
     d="m 26.975952,44.224123 12.404331,17.289988 c 0.410067,0.55022 0.410067,1.51273 0.03417,2.09696 l -19.477791,29.76781 c -0.410066,0.58424 -0.888471,0.51546 -1.127656,-0.13756 L 7.874059,59.245545 C 7.6690315,58.558132 7.9082318,57.664396 8.4549792,57.251728 L 25.164875,44.017865 c 0.546745,-0.446833 1.366916,-0.309352 1.776946,0.240648 z"
     fill="#ffffff"
     fill-opacity="0.6"
     id="path12"
     style="fill:#ffffff;stroke-width:3.65837" />
  <path
     fill-rule="evenodd"
     clip-rule="evenodd"
     d="m 77.822962,19.509228 1.606025,35.6115 c 0,0.721794 0.58095,1.443598 1.23031,1.684315 l 20.092873,6.634098 c 0.68339,0.20633 1.40116,-0.17195 1.60603,-0.85936 l 5.80913,-20.624359 c 0.17085,-0.687481 -0.10243,-1.581184 -0.68339,-1.959314 L 78.848038,18.993617 c -0.580584,-0.412481 -1.025076,-0.171871 -1.025076,0.549999 z"
     fill="#ffffff"
     fill-opacity="0.6"
     id="path13"
     style="fill:#ffffff;stroke-width:3.65837" />
  <path
     fill-rule="evenodd"
     clip-rule="evenodd"
     d="m 109.77299,67.976611 -33.077904,12.54639 c -0.649361,0.24072 -1.195921,1.03129 -1.195921,1.71869 v 21.346239 c 0,0.7218 0.580948,1.27202 1.264333,1.27202 l 21.220383,-0.82497 c 0.683384,0 1.435179,-0.58459 1.640414,-1.27201 L 110.59319,68.801571 c 0.20523,-0.68741 -0.17084,-1.03129 -0.8202,-0.79057 z"
     fill="#ffffff"
     fill-opacity="0.6"
     id="path14"
     style="fill:#ffffff;stroke-width:3.65837" />
  <path
     fill-rule="evenodd"
     clip-rule="evenodd"
     d="M 73.99594,113.62503 51.954984,85.747881 c -0.444126,-0.54985 -1.33238,-0.82496 -1.98174,-0.61862 l -20.092947,6.56531 c -0.683421,0.24071 -1.025149,0.96251 -0.785928,1.64992 l 7.312718,20.108969 c 0.239185,0.65302 1.02515,1.20288 1.708571,1.20288 h 35.401767 c 0.717406,0 0.92264,-0.44669 0.512537,-1.03131 z"
     fill="#ffffff"
     fill-opacity="0.6"
     id="path15"
     style="fill:#ffffff;stroke-width:3.65837" />
  <path
     d="m 22.382539,145.03252 h 13.470123 c 2.35599,0 4.507114,0.37572 6.453367,1.12678 1.946253,0.75106 3.602399,1.87784 4.968068,3.38034 1.36567,1.46809 2.424403,3.32911 3.175466,5.58267 0.751065,2.21954 1.126779,4.81442 1.126779,7.78501 0,2.9706 -0.375714,5.58268 -1.126779,7.83624 -0.751063,2.21954 -1.809796,4.08018 -3.175466,5.58267 -1.365669,1.46811 -3.021815,2.57806 -4.968068,3.32913 -1.946253,0.75106 -4.097377,1.12676 -6.453367,1.12676 H 22.382539 Z m 13.470123,28.83529 c 2.321857,0 4.148593,-0.64863 5.48024,-1.94626 1.331648,-1.29763 1.997471,-3.38032 1.997471,-6.2485 v -5.53145 c 0,-2.86817 -0.665823,-4.95087 -1.997471,-6.24849 -1.331647,-1.29763 -3.158383,-1.94626 -5.48024,-1.94626 h -5.68511 v 21.92096 z m 33.048629,7.52892 c -2.048688,0 -3.875312,-0.3245 -5.48024,-0.97313 -1.604561,-0.683 -2.970598,-1.62175 -4.097376,-2.81693 -1.09239,-1.22922 -1.929059,-2.71452 -2.509642,-4.45591 -0.546195,-1.74138 -0.819475,-3.68763 -0.819475,-5.83876 0,-2.11709 0.27328,-4.02896 0.819475,-5.73632 0.54656,-1.74139 1.348841,-3.22668 2.407208,-4.45589 1.092755,-1.22922 2.424403,-2.16832 3.994941,-2.81695 1.570905,-0.68303 3.363508,-1.02435 5.377807,-1.02435 2.219534,0 4.11457,0.37572 5.685108,1.12678 1.604928,0.75107 2.902553,1.75858 3.892508,3.02182 1.024344,1.26323 1.758579,2.7317 2.202339,4.40468 0.478149,1.63895 0.717041,3.36314 0.717041,5.17293 v 2.25356 H 63.830789 v 0.40973 c 0,1.77541 0.478149,3.19268 1.434081,4.25104 0.956298,1.02433 2.458426,1.53651 4.507114,1.53651 1.570905,0 2.851335,-0.30731 3.84129,-0.92191 0.990321,-0.64863 1.912231,-1.41689 2.76573,-2.30478 l 3.790072,4.71199 c -1.194824,1.40006 -2.765729,2.49246 -4.711983,3.27789 -1.911866,0.78546 -4.097376,1.178 -6.555802,1.178 z M 68.74764,158.86116 c -1.536516,0 -2.748534,0.51218 -3.636421,1.53652 -0.853498,0.99032 -1.28043,2.32198 -1.28043,3.99494 v 0.40974 h 9.423964 v -0.46095 c 0,-1.63895 -0.375348,-2.95341 -1.126777,-3.94373 -0.717042,-1.02434 -1.84382,-1.53652 -3.380336,-1.53652 z m 19.028287,0.92192 h -3.790072 v -5.88997 h 3.790072 v -3.17547 c 0,-2.59489 0.683019,-4.54115 2.048688,-5.83877 1.366036,-1.33164 3.363507,-1.99747 5.992413,-1.99747 h 4.916852 v 5.88998 h -5.377807 v 5.12173 h 5.377807 v 5.88997 h -5.377807 v 20.99904 h -7.580146 z m 33.051923,16.49194 h -0.25608 c -0.23889,0.68302 -0.56339,1.33165 -0.97312,1.94625 -0.37536,0.61461 -0.8707,1.1608 -1.48531,1.63895 -0.6146,0.47815 -1.34847,0.8535 -2.20234,1.12678 -0.81948,0.27328 -1.77541,0.40973 -2.86817,0.40973 -2.76572,0 -4.86562,-0.9047 -6.29971,-2.7145 -1.39969,-1.84382 -2.0999,-4.47309 -2.0999,-7.88745 v -16.90167 h 7.58015 v 16.23584 c 0,1.63896 0.29046,2.90219 0.87069,3.79008 0.58058,0.88788 1.57089,1.33163 2.97059,1.33163 0.58059,0 1.16117,-0.0853 1.74139,-0.25607 0.58058,-0.17085 1.09276,-0.40974 1.53652,-0.71705 0.44412,-0.34132 0.80263,-0.75106 1.07556,-1.22921 0.27327,-0.47815 0.40973,-1.04154 0.40973,-1.69016 v -17.46506 h 7.58015 v 26.88901 h -7.58015 z m 14.63312,4.5071 v -26.88901 h 7.58015 v 5.83874 h 0.25609 c 0.13645,-0.75106 0.37571,-1.46809 0.71704,-2.15112 0.34132,-0.71703 0.78545,-1.34884 1.33165,-1.89502 0.58058,-0.5462 1.26323,-0.97314 2.04869,-1.28044 0.78543,-0.34133 1.70736,-0.51216 2.76572,-0.51216 h 1.33165 v 7.06797 h -1.89504 c -2.21953,0 -3.87531,0.29009 -4.96807,0.87069 -1.05836,0.58059 -1.58773,1.65615 -1.58773,3.22668 v 15.72367 z m 20.70675,0 v -26.88901 h 7.58015 v 4.55832 h 0.3073 c 0.47816,-1.40006 1.31482,-2.61207 2.50964,-3.63642 1.1952,-1.02434 2.85133,-1.53652 4.96807,-1.53652 2.76573,0 4.84881,0.92192 6.24851,2.76574 1.43406,1.84381 2.15112,4.47308 2.15112,7.88744 v 16.85045 h -7.58015 v -16.23584 c 0,-1.74139 -0.27291,-3.02181 -0.81948,-3.84129 -0.54619,-0.85351 -1.51932,-1.28044 -2.91938,-1.28044 -0.61461,0 -1.21202,0.0853 -1.79261,0.25609 -0.5802,0.13647 -1.10957,0.37572 -1.58772,0.71704 -0.44377,0.34133 -0.80228,0.76826 -1.07557,1.28043 -0.2729,0.47815 -0.40973,1.04155 -0.40973,1.69018 v 17.41383 z m 34.30053,-29.75718 c -1.53653,0 -2.66329,-0.34133 -3.38034,-1.02435 -0.68301,-0.71704 -1.02434,-1.62175 -1.02434,-2.71451 v -1.12678 c 0,-1.09276 0.34133,-1.98027 1.02434,-2.66329 0.71705,-0.71704 1.84381,-1.07557 3.38034,-1.07557 1.53652,0 2.64609,0.35853 3.32911,1.07557 0.71704,0.68302 1.07557,1.57053 1.07557,2.66329 v 1.12678 c 0,1.09276 -0.35853,1.99747 -1.07557,2.71451 -0.68302,0.68302 -1.79259,1.02435 -3.32911,1.02435 z m -3.79008,2.86817 h 7.58015 v 26.88901 h -7.58015 z m 23.77137,27.50362 c -2.59488,0 -4.78003,-0.40973 -6.55581,-1.22921 -1.7754,-0.85349 -3.36313,-2.04869 -4.76319,-3.5852 l 4.45589,-4.50711 c 0.9563,1.05836 2.01468,1.89503 3.17547,2.50964 1.16117,0.6146 2.47562,0.9219 3.94373,0.9219 1.50248,0 2.54403,-0.22206 3.12424,-0.66582 0.58059,-0.47814 0.87069,-1.10958 0.87069,-1.89503 0,-1.26324 -0.9047,-2.01468 -2.71451,-2.25356 l -2.91938,-0.35852 c -6.04363,-0.75107 -9.06544,-3.51679 -9.06544,-8.29719 0,-1.29762 0.23925,-2.47561 0.71705,-3.53398 0.51216,-1.09276 1.21238,-2.01467 2.09989,-2.76573 0.92192,-0.78545 2.01468,-1.38287 3.27791,-1.7926 1.29763,-0.44377 2.74889,-0.66583 4.35346,-0.66583 1.40006,0 2.62927,0.10244 3.68763,0.3073 1.09276,0.17085 2.04869,0.44377 2.86817,0.81948 0.85387,0.34133 1.62212,0.78546 2.30477,1.33165 0.71705,0.51218 1.41725,1.09275 2.09991,1.74138 l -4.35347,4.4559 c -0.85349,-0.8535 -1.82662,-1.51932 -2.91938,-1.99747 -1.05836,-0.51218 -2.15112,-0.76825 -3.27789,-0.76825 -1.29726,0 -2.21918,0.20486 -2.76574,0.6146 -0.54619,0.40973 -0.81947,0.95593 -0.81947,1.63895 0,0.71704 0.18804,1.28043 0.56339,1.69016 0.40974,0.37573 1.16116,0.64863 2.25356,0.81948 l 3.02181,0.40974 c 5.90717,0.78545 8.86058,3.48276 8.86058,8.09232 0,1.29762 -0.27291,2.49244 -0.81948,3.5852 -0.54619,1.09275 -1.33164,2.04868 -2.35599,2.86817 -0.98996,0.78544 -2.20233,1.40006 -3.63642,1.84381 -1.39969,0.44375 -2.9706,0.66582 -4.71198,0.66582 z m 16.69205,-38.51533 h 7.58014 v 15.57003 h 0.30731 c 0.47815,-1.40006 1.31481,-2.61207 2.50964,-3.63642 1.19519,-1.02434 2.85134,-1.53652 4.96807,-1.53652 2.76572,0 4.84881,0.92192 6.2485,2.76574 1.43408,1.84381 2.15111,4.47308 2.15111,7.88744 v 16.85045 h -7.58013 v -16.23584 c 0,-1.74139 -0.27292,-3.02181 -0.81948,-3.84129 -0.5462,-0.85351 -1.51932,-1.28044 -2.91938,-1.28044 -0.6146,0 -1.21202,0.0853 -1.7926,0.25609 -0.58022,0.13647 -1.10959,0.37572 -1.58773,0.71704 -0.44376,0.34133 -0.80228,0.76826 -1.07556,1.28043 -0.27292,0.47815 -0.40975,1.04155 -0.40975,1.69018 v 17.41383 h -7.58014 z m 41.72703,38.51533 c -2.04869,0 -3.87569,-0.3245 -5.48025,-0.97313 -1.60493,-0.683 -2.9706,-1.62175 -4.09738,-2.81693 -1.09275,-1.22922 -1.92942,-2.71452 -2.50964,-4.45591 -0.54656,-1.74138 -0.81948,-3.68763 -0.81948,-5.83876 0,-2.11709 0.27292,-4.02896 0.81948,-5.73632 0.5462,-1.74139 1.34847,-3.22668 2.4072,-4.45589 1.0924,-1.22922 2.42404,-2.16832 3.99495,-2.81695 1.57054,-0.68303 3.36314,-1.02435 5.3778,-1.02435 2.21918,0 4.11421,0.37572 5.68512,1.12678 1.60456,0.75107 2.90219,1.75858 3.8925,3.02182 1.02435,1.26323 1.75822,2.7317 2.20234,4.40468 0.47779,1.63895 0.71704,3.36314 0.71704,5.17293 v 2.25356 h -17.26019 v 0.40973 c 0,1.77541 0.47777,3.19268 1.43407,4.25104 0.95593,1.02433 2.45842,1.53651 4.50711,1.53651 1.57055,0 2.85098,-0.30731 3.84131,-0.92191 0.98995,-0.64863 1.91186,-1.41689 2.76572,-2.30478 l 3.79007,4.71199 c -1.19518,1.40006 -2.76572,2.49246 -4.71198,3.27789 -1.91224,0.78546 -4.09737,1.178 -6.55579,1.178 z m -0.15366,-22.53557 c -1.53652,0 -2.74891,0.51218 -3.63642,1.53652 -0.85387,0.99032 -1.28043,2.32198 -1.28043,3.99494 v 0.40974 h 9.42396 v -0.46095 c 0,-1.63895 -0.37571,-2.95341 -1.12677,-3.94373 -0.71705,-1.02434 -1.84383,-1.53652 -3.38034,-1.53652 z m 34.18858,17.41386 h -0.2561 c -0.20486,0.71703 -0.52936,1.40006 -0.97312,2.04869 -0.44376,0.6146 -0.99033,1.1608 -1.63896,1.63895 -0.6146,0.44376 -1.33163,0.78544 -2.15111,1.02434 -0.78545,0.27328 -1.60493,0.40973 -2.45842,0.40973 -3.41436,0 -5.99242,-1.19519 -7.7338,-3.5852 -1.74139,-2.4244 -2.61208,-5.924 -2.61208,-10.49953 0,-4.57552 0.87069,-8.05828 2.61208,-10.4483 1.74138,-2.39002 4.31944,-3.58521 7.7338,-3.58521 1.74138,0 3.2779,0.47815 4.60953,1.43408 1.36569,0.95593 2.23638,2.18516 2.61208,3.68765 h 0.2561 V 142.8814 h 7.58014 v 37.90072 h -7.58014 z m -4.96807,-1.02436 c 1.43408,0 2.61208,-0.34131 3.53398,-1.02433 0.95593,-0.71703 1.43409,-1.69017 1.43409,-2.91938 v -7.93866 c 0,-1.22922 -0.47816,-2.18515 -1.43409,-2.86818 -0.9219,-0.71703 -2.0999,-1.07556 -3.53398,-1.07556 -1.43409,0 -2.62928,0.51218 -3.58521,1.53653 -0.9219,0.99031 -1.38286,2.33878 -1.38286,4.04614 v 4.66077 c 0,1.70736 0.46096,3.07304 1.38286,4.09738 0.95593,0.99032 2.15112,1.48529 3.58521,1.48529 z m 29.1799,-21.35755 h 7.32406 l 2.61208,10.85804 1.84382,8.19475 h 0.20487 l 2.15112,-8.19475 3.07302,-10.85804 h 6.91433 l 3.12425,10.85804 2.20234,8.19475 h 0.20487 l 1.84382,-8.19475 2.61208,-10.85804 h 7.01675 l -7.42649,26.88901 h -7.93867 l -3.27791,-11.3702 -1.89503,-6.96555 h -0.15366 l -1.8438,6.96555 -3.27791,11.3702 h -7.78502 z m 49.41583,-2.86817 c -1.53653,0 -2.66331,-0.34133 -3.38072,-1.02435 -0.68301,-0.71704 -1.02434,-1.62175 -1.02434,-2.71451 v -1.12678 c 0,-1.09276 0.34133,-1.98027 1.02434,-2.66329 0.71741,-0.71704 1.84419,-1.07557 3.38072,-1.07557 1.5365,0 2.64499,0.35853 3.32911,1.07557 0.71703,0.68302 1.07556,1.57053 1.07556,2.66329 v 1.12678 c 0,1.09276 -0.35853,1.99747 -1.07556,2.71451 -0.68412,0.68302 -1.79261,1.02435 -3.32911,1.02435 z m -3.79045,2.86817 h 7.5805 v 26.88901 h -7.5805 z m 24.07976,26.88901 c -2.63036,0 -4.62784,-0.66582 -5.9924,-1.99745 -1.33166,-1.33166 -1.99748,-3.27792 -1.99748,-5.83877 v -13.16282 h -3.79007 v -5.88997 h 1.89503 c 1.02436,0 1.7231,-0.2389 2.09992,-0.71705 0.37314,-0.51218 0.56337,-1.22921 0.56337,-2.15112 v -4.40468 h 6.8119 v 7.27285 h 5.32659 v 5.88997 h -5.32659 v 15.10907 h 4.91685 v 5.88997 z m 10.18125,-37.90072 h 7.58015 v 15.57003 h 0.30731 c 0.47924,-1.40006 1.31335,-2.61207 2.50963,-3.63642 1.19629,-1.02434 2.84988,-1.53652 4.96807,-1.53652 2.76574,0 4.84734,0.92192 6.2485,2.76574 1.43409,1.84381 2.15112,4.47308 2.15112,7.88744 v 16.85045 h -7.58014 v -16.23584 c 0,-1.74139 -0.27438,-3.02181 -0.81948,-3.84129 -0.5451,-0.85351 -1.51823,-1.28044 -2.91939,-1.28044 -0.6146,0 -1.2109,0.0853 -1.79259,0.25609 -0.58169,0.13647 -1.10849,0.37572 -1.58773,0.71704 -0.44266,0.34133 -0.80119,0.76826 -1.07556,1.28043 -0.27439,0.47815 -0.40974,1.04155 -0.40974,1.69018 v 17.41383 h -7.58015 z m 65.0495,37.90072 -2.56086,-8.50205 h -11.9336 l -2.56085,8.50205 h -7.88745 l 11.77994,-35.7496 h 9.62884 l 11.6263,35.7496 z m -8.45083,-28.68163 h -0.25609 l -3.94372,13.57256 h 8.19476 z m 20.10641,28.68163 v -6.19727 h 4.60954 V 151.2298 h -4.60954 v -6.19728 h 17.00411 v 6.19728 h -4.60955 v 23.35505 h 4.60955 v 6.19727 z"
     fill="#ffffff"
     fill-opacity="0.6"
     id="path16"
     style="fill:#ffffff;stroke-width:3.65837" />
</svg>
