<svg width="1416" height="298" viewBox="0 0 1416 298" fill="none" xmlns="http://www.w3.org/2000/svg">
<g clip-path="url(#clip0_255_2375)">
<path d="M539.3 209.5L527.6 116.5L480.4 237.4H473.2L423 115.7L411.7 209.5C411.5 211.1 411.3 214.1 411.3 214.8C411.3 225.5 416.6 228.1 431.7 228.9V237.4H381.1V228.9C393.2 228.3 397.7 225.9 399 215.6L412.4 107.5C412.4 95.8 408.6 92.1 394.5 91.5V83H433.8C434.2 87.9 435.3 90.7 437.2 95.3L481.8 204.6L523.9 95.3C525.6 90.7 526.9 88 527.3 83H565.6V91.5C551.4 92.1 547.7 95.9 547.7 107.5L561.1 215.6C562.4 225.9 567 228.3 579 228.9V237.4H519.3V228.9C534.4 228.1 539.7 225.5 539.7 214.8C539.7 204.1 539.5 211 539.3 209.5Z" fill="white"/>
<path d="M627.1 225.1C638.2 225.1 644.5 220 653.4 212.8V183.5L620.3 194.4C613.7 196.6 609.9 200.5 609.9 208.1C609.9 219.4 616.7 225.1 627.1 225.1ZM672.2 168.5V211.5C672.2 220.2 675.4 225 681.1 225C686.8 225 686.6 224.6 689.4 223.8L691.3 229.9C684.7 236.6 678.6 239.4 671.7 239.4C664.8 239.4 657 232.3 653.9 221.4C646.9 229.5 636.1 239.4 618.6 239.4C601.1 239.4 589.9 227.7 589.9 212.3C589.9 196.9 602.4 189.5 616.9 185.2L653.4 173.9V169.7C653.4 153.5 646.2 140.8 630 140.8C613.8 140.8 614.3 145.4 614.3 155.4C614.3 165.4 614.7 160.9 615.2 164.9L599.5 166.9C596.9 164.1 595.3 161 595.3 156.2C595.3 140 612.3 130.5 633.5 130.5C654.7 130.5 672.2 140.6 672.2 168.5Z" fill="white"/>
<path d="M724.5 109.9V132.5H754V143.4H724.5V204.4C724.5 218.7 730.4 225 741.9 225C753.4 225 751.9 224 757 221.4L759.3 226.9C754.6 232.4 746.1 239.4 733 239.4C719.9 239.4 705.6 231.7 705.6 211.3V143.4H691.1V136.5C701.1 130.2 709.2 122.6 718.9 110H724.6L724.5 109.9Z" fill="white"/>
<path d="M797.8 109.9V132.5H827.3V143.4H797.8V204.4C797.8 218.7 803.7 225 815.2 225C826.7 225 825.2 224 830.3 221.4L832.6 226.9C827.9 232.4 819.4 239.4 806.3 239.4C793.2 239.4 778.9 231.7 778.9 211.3V143.4H764.4V136.5C774.4 130.2 782.5 122.6 792.2 110H797.9L797.8 109.9Z" fill="white"/>
<path d="M887.7 130.5C915.3 130.5 929.6 148.7 929.6 172.5V178H855.6C855.6 205.3 866.9 222.1 891.9 222.1C916.9 222.1 918.2 214.6 924.4 206.5L929.9 209.1C925.7 223.5 912.7 239.4 886.1 239.4C859.5 239.4 837.7 216.6 837.7 188.3C837.7 160 858.9 130.5 887.8 130.5H887.7ZM882.9 142.8C868 142.8 858.2 153.3 856.1 168.1H908.8C908.8 154.2 899.9 142.8 882.9 142.8Z" fill="white"/>
<path d="M974.3 130.5L973.4 160.8C982.3 144.4 990.8 130.5 1004.6 130.5C1018.4 130.5 1012 131.7 1013.9 133.3V151.7H1006.1C994 151.7 986.1 154.7 973.4 170.1V217.6C973.4 227.5 978.3 228.1 992.3 229.7V237.4H939.4V229.7C948.1 228.5 954.5 227.5 954.5 218.4V152.1L940.3 145.2V140.4L967.7 130.5H974.3Z" fill="white"/>
<path d="M1083.3 239.4C1072 239.4 1063.3 236.2 1057.2 231.5V265.9C1057.2 275 1063.6 276 1072.3 277.2V284.9H1023.2V277.2C1031.9 276 1038.3 275 1038.3 265.9V152.1L1024.1 145.2V140.4L1051.5 130.5H1058.1L1057.2 148.9C1065.3 138 1078.5 130.5 1093.3 130.5C1122.4 130.5 1137.7 152.7 1137.7 180C1137.7 207.3 1113.1 239.4 1083.3 239.4ZM1085.3 228.1C1105.1 228.1 1118.2 213.8 1118.2 188.3C1118.2 162.8 1110.4 145.5 1086.1 145.5C1061.8 145.5 1063.6 151.4 1057.2 158.6V203.1C1057.2 221.9 1071 228 1085.3 228V228.1Z" fill="white"/>
<path d="M1203.9 227.1C1222.8 227.1 1232.2 211.3 1232.2 189.7C1232.2 168.1 1219 142.8 1196.3 142.8C1173.6 142.8 1168 158.6 1168 180.2C1168 201.8 1181.2 227.1 1203.9 227.1ZM1198.2 239.4C1168.4 239.4 1148 217.4 1148 186.9C1148 156.4 1172.9 130.5 1202 130.5C1231.1 130.5 1252.2 152.5 1252.2 183C1252.2 213.5 1227.3 239.4 1198.2 239.4Z" fill="white"/>
<path d="M1297.9 130.5L1297 160.8C1305.9 144.4 1314.4 130.5 1328.2 130.5C1342 130.5 1335.6 131.7 1337.4 133.3V151.7H1329.7C1317.6 151.7 1309.7 154.7 1297 170.1V217.6C1297 227.5 1301.9 228.1 1315.9 229.7V237.4H1263V229.7C1271.7 228.5 1278.1 227.5 1278.1 218.4V152.1L1263.9 145.2V140.4L1291.3 130.5H1297.9Z" fill="white"/>
<path d="M1381.2 109.9V132.5H1410.7V143.4H1381.2V204.4C1381.2 218.7 1387 225 1398.6 225C1410.2 225 1408.6 224 1413.7 221.4L1416 226.9C1411.3 232.4 1402.8 239.4 1389.8 239.4C1376.8 239.4 1362.4 231.7 1362.4 211.3V143.4H1347.9V136.5C1357.9 130.2 1366 122.6 1375.7 110H1381.4L1381.2 109.9Z" fill="white"/>
<path fill-rule="evenodd" clip-rule="evenodd" d="M126.6 1.70001C128.3 0.500004 131 0.400004 132.7 1.60001L184.3 36.3C186 37.5 186.4 39.8 185.3 41.5L148.9 91.6C147.7 93.3 145.1 94.1 143.1 93.6L43.4001 66C41.4001 65.4 41.2001 63.9 42.8001 62.7L126.6 1.70001Z" fill="white"/>
<path fill-rule="evenodd" clip-rule="evenodd" d="M57.0999 92.3L93.4 142.6C94.6 144.2 94.6 147 93.5 148.7L36.5 235.3C35.3 237 33.9 236.8 33.2 234.9L1.19995 136C0.599951 134 1.29995 131.4 2.89995 130.2L51.7999 91.7C53.3999 90.4 55.8 90.8 57 92.4L57.0999 92.3Z" fill="white"/>
<path fill-rule="evenodd" clip-rule="evenodd" d="M205.9 20.4L210.6 124C210.6 126.1 212.3 128.2 214.2 128.9L273 148.2C275 148.8 277.1 147.7 277.7 145.7L294.7 85.7C295.2 83.7 294.4 81.1 292.7 80L208.9 18.9C207.2 17.7 205.9 18.4 205.9 20.5V20.4Z" fill="white"/>
<path fill-rule="evenodd" clip-rule="evenodd" d="M299.4 161.4L202.6 197.9C200.7 198.6 199.1 200.9 199.1 202.9V265C199.1 267.1 200.8 268.7 202.8 268.7L264.9 266.3C266.9 266.3 269.1 264.6 269.7 262.6L301.8 163.8C302.4 161.8 301.3 160.8 299.4 161.5V161.4Z" fill="white"/>
<path fill-rule="evenodd" clip-rule="evenodd" d="M194.7 294.2L130.2 213.1C128.9 211.5 126.3 210.7 124.4 211.3L65.6001 230.4C63.6001 231.1 62.6001 233.2 63.3001 235.2L84.7001 293.7C85.4001 295.6 87.7001 297.2 89.7001 297.2H193.3C195.4 297.2 196 295.9 194.8 294.2H194.7Z" fill="white"/>
</g>
<defs>
<clipPath id="clip0_255_2375">
<rect width="1416" height="298" fill="white"/>
</clipPath>
</defs>
</svg>
