<svg width="23" height="21" viewBox="0 0 23 21" fill="none" xmlns="http://www.w3.org/2000/svg">
    <path fill-rule="evenodd" clip-rule="evenodd" d="M9.5996 0.0663523C9.7269 -0.0185056 9.93383 -0.0225771 10.063 0.0576382L14.0052 2.5163C14.1359 2.60037 14.1682 2.7663 14.0779 2.88774L11.2944 6.43876C11.2032 6.55569 11.0072 6.61812 10.8547 6.58019L3.23922 4.62575C3.08872 4.58489 3.06769 4.47932 3.19436 4.39153L9.5996 0.0663523Z" fill="#FF3158"/>
    <path fill-rule="evenodd" clip-rule="evenodd" d="M4.28403 6.4859L7.05596 10.0466C7.14691 10.163 7.15093 10.357 7.06377 10.4774L2.7118 16.6112C2.62278 16.7333 2.50957 16.7187 2.45906 16.5808L0.0170457 9.5771C-0.0319076 9.4382 0.0283366 9.25305 0.149676 9.16466L3.88304 6.43568C4.00902 6.34677 4.18805 6.37033 4.28403 6.4859Z" fill="#FF3158"/>
    <path fill-rule="evenodd" clip-rule="evenodd" d="M15.6601 1.39118L16.0154 8.73234C16.0204 8.87818 16.1467 9.03102 16.2938 9.07706L20.7872 10.4415C20.9387 10.4832 21.0976 10.4026 21.1441 10.2641L22.4397 6.01522C22.4811 5.87665 22.4133 5.69294 22.2866 5.60808L15.8856 1.27868C15.7567 1.19375 15.6555 1.24418 15.6601 1.39118Z" fill="black"/>
    <path fill-rule="evenodd" clip-rule="evenodd" d="M22.8022 11.3763L15.4046 13.9596C15.2588 14.0098 15.1399 14.1688 15.1399 14.3132L15.134 18.7083C15.1374 18.8549 15.2672 18.9725 15.4256 18.9685L20.1689 18.8016C20.3244 18.7961 20.4897 18.6794 20.5379 18.5418L22.9872 11.5422C23.0337 11.401 22.9495 11.3264 22.8022 11.3763Z" fill="black"/>
    <path fill-rule="evenodd" clip-rule="evenodd" d="M14.7993 20.7859L9.87346 15.0402C9.77718 14.9268 9.57675 14.8693 9.42936 14.9139L4.93318 16.2655C4.78331 16.3145 4.70466 16.4653 4.75701 16.6056L6.39157 20.7503C6.4468 20.8851 6.61739 20.9956 6.77323 20.9956L14.6879 21C14.8453 20.9977 14.8965 20.9026 14.7993 20.7859Z" fill="black"/>
</svg>
