<svg width="137" height="32" viewBox="0 0 137 32" fill="none" xmlns="http://www.w3.org/2000/svg">
<path fill-rule="evenodd" clip-rule="evenodd" d="M134.116 15.1325H134.664L135.475 17.5174L136.28 15.1325H136.824V17.9529H136.459V16.2885C136.459 16.2311 136.46 16.136 136.463 16.0027C136.465 15.8694 136.466 15.7262 136.466 15.5738L135.661 17.9529H135.283L134.469 15.5738V15.66C134.469 15.7294 134.471 15.8351 134.476 15.976C134.479 16.1183 134.481 16.2218 134.481 16.2885V17.9529H134.116V15.1325ZM133.774 15.1325V15.4685H132.823V17.9529H132.437V15.4685H131.487V15.1325H133.774ZM88.2264 25.6476C86.6011 25.6476 85.0446 24.9841 85.0446 22.9574V18.152C85.7709 17.384 87.0082 16.744 88.31 16.744C91.0647 16.744 91.9402 19.1352 91.9402 21.3569C91.9402 24.109 90.466 25.6476 88.2264 25.6476ZM89.1207 15.1213C87.4571 15.1213 85.9624 15.9333 85.0446 17.1085L85.15 15.1213H84.4037L81.3082 16.1893V16.7014L82.9082 17.4511V29.7232C82.9082 30.7059 82.1842 30.8112 81.2011 30.9419V31.7748H86.7513V30.9419C85.7709 30.8112 85.0446 30.7059 85.0446 29.7232V26.0085C85.7255 26.5227 86.7095 26.8645 87.9904 26.8645C91.3611 26.8645 94.1358 24.4081 94.1358 20.4596C94.1358 17.5134 92.4082 15.1213 89.1207 15.1213ZM111.971 10.9182C110.466 10.9809 109.665 11.216 109.665 12.6467V26.6499H108.633L97.7567 13.6107V24.0032C97.7567 25.433 98.5576 25.6677 100.062 25.733V26.6499H94.0416V25.733C95.5429 25.6677 96.3438 25.433 96.3438 24.0032V12.3271C95.4443 11.216 95.1429 10.9405 94.0416 10.9182V10H97.8936L108.253 22.4121V12.6467C108.253 11.216 107.453 10.9809 105.949 10.9182V10H111.971V10.9182ZM129.984 25.5188C129.449 26.1156 128.49 26.8645 127.016 26.8645C125.393 26.8645 123.919 26.0308 123.919 23.8321V16.5107H122.276V15.7623C123.409 15.0796 124.326 14.2685 125.415 12.9027H126.056V15.3356H129.386V16.5107H126.056V23.0863C126.056 24.6232 126.717 25.3036 128.02 25.3036C128.596 25.3036 129.151 25.1965 129.728 24.9232L129.984 25.5188ZM116.598 16.4449C118.519 16.4449 119.524 17.6849 119.524 19.1783H113.567C113.801 17.5792 114.911 16.4449 116.598 16.4449ZM117.6 25.0058C114.783 25.0058 113.502 23.1898 113.502 20.2449H121.871V19.6476C121.871 17.0867 120.248 15.1213 117.13 15.1213C113.866 15.1213 111.473 17.6205 111.473 21.3569C111.473 24.4081 113.502 26.8645 116.939 26.8645C119.949 26.8645 121.424 25.1547 121.891 23.5961L121.272 23.3183C120.567 24.1952 119.373 25.0058 117.6 25.0058ZM54.2556 21.9525H55.0445L54.2556 26.6499H40.8986V25.733C42.5 25.6676 43.3537 25.433 43.3537 24.0032V12.6467C43.3537 11.216 42.5 10.9809 40.8986 10.9182V10H48.2204V10.9182C46.6187 10.9809 45.7662 11.216 45.7662 12.6467V23.8743C45.7662 25.1548 46.4711 25.477 48.2204 25.477H50.2422C52.3751 25.477 52.8907 24.4303 54.2556 21.9525ZM75.4517 25.5401C72.8895 25.5401 71.3961 23.2352 71.3961 20.4814C71.3961 18.1521 72.4624 16.4449 74.5966 16.4449C77.1602 16.4449 78.6553 18.7507 78.6553 21.5036C78.6553 23.8321 77.5868 25.5401 75.4517 25.5401ZM75.2375 15.1213C71.9512 15.1213 69.1339 17.4698 69.1339 21.2058C69.1339 24.4938 71.4392 26.8645 74.8112 26.8645C78.097 26.8645 80.9166 24.5161 80.9166 20.7792C80.9166 17.4916 78.6113 15.1213 75.2375 15.1213ZM62.2178 25.5392C59.6556 25.5392 58.1614 23.2352 58.1614 20.4814C58.1614 18.1521 59.2289 16.4449 61.3632 16.4449C63.9241 16.4449 65.4192 18.7507 65.4192 21.5036C65.4192 23.8321 64.3521 25.5401 62.2178 25.5392ZM62.0045 15.1213C58.7165 15.1213 55.8982 17.4698 55.8982 21.2058C55.8982 24.4938 58.204 26.8645 61.5752 26.8645C64.8641 26.8645 67.6827 24.5161 67.6827 20.7792C67.6827 17.4916 65.3801 15.1213 62.0045 15.1213Z" fill="white"/>
<path fill-rule="evenodd" clip-rule="evenodd" d="M4.58906 7.04874L15.3833 10.027C15.5993 10.0848 15.8771 9.98965 16.0065 9.81142L19.9518 4.40028C20.0798 4.21539 20.034 3.9625 19.8487 3.8345L14.2611 0.0878097C14.078 -0.0344133 13.7847 -0.028191 13.6042 0.101143L4.52551 6.69185C4.34595 6.82563 4.37573 6.98652 4.58906 7.04874ZM22.1945 2.12027L22.6981 13.307C22.7052 13.5292 22.8843 13.7621 23.0927 13.8323L29.4617 15.9115C29.6763 15.975 29.9017 15.8524 29.9674 15.6412L31.8039 9.16653C31.8626 8.95542 31.7666 8.67542 31.587 8.54608L22.5141 1.94871C22.3314 1.81938 22.1878 1.89627 22.1945 2.12027ZM21.8363 21.2724L32.3217 17.3355C32.5306 17.2595 32.6497 17.3732 32.5839 17.5884L29.1123 28.2551C29.0439 28.4649 28.8096 28.6426 28.5892 28.6511L21.866 28.9053C21.6416 28.9115 21.4576 28.7324 21.4527 28.5089L21.4612 21.8111C21.4612 21.5911 21.6296 21.3488 21.8363 21.2724ZM20.9776 31.6738L13.9958 22.9182C13.8593 22.7453 13.5753 22.6577 13.3664 22.7257L6.99351 24.7853C6.78106 24.86 6.66951 25.0898 6.74373 25.3035L9.06063 31.6196C9.13885 31.8249 9.38063 31.9934 9.60153 31.9934L20.8198 32C21.0429 31.9965 21.1154 31.8516 20.9776 31.6738ZM0.0241391 14.5941L3.48549 25.2671C3.55705 25.4773 3.71749 25.4995 3.84372 25.3133L10.0122 15.9661C10.1358 15.7826 10.13 15.487 10.0011 15.3097L6.07217 9.88342C5.93617 9.70742 5.68239 9.67142 5.50373 9.80697L0.21214 13.9657C0.0401392 14.1003 -0.0451947 14.3826 0.0241391 14.5941Z" fill="#CC2431"/>
</svg>
